<svg id="Calque_1" data-name="Calque 1" xmlns="http://www.w3.org/2000/svg" viewBox="0 0 100 100"><defs><style>.cls-1{fill:#1482c2;}.cls-2{fill:#fff;}</style></defs><circle class="cls-1" cx="50" cy="50" r="50"/><path id="path4295" class="cls-2" d="M83.88,63.65V56.23H98.5l0-12.94H83.88V36.54H100l0-13-31,.09v18.2a27,27,0,0,0-23.09-18.2L22.29,23.5v53H46a27,27,0,0,0,23-18.1V76.5H100l0-12.85Zm-30-5.54A8.37,8.37,0,0,1,46,64.3H37.24V35.87H46a8.27,8.27,0,0,1,7.94,6.3A24.35,24.35,0,0,1,55.22,50a25.47,25.47,0,0,1-1.33,8.07"/></svg>