<svg id="Calque_1" data-name="Calque 1" xmlns="http://www.w3.org/2000/svg" viewBox="0 0 100 100"><defs><style>.cls-1{fill:#4c9300;}.cls-2{fill:#ffa039;}.cls-3{fill:#fff;}.cls-4{fill:#ea7f13;}.cls-5{fill:#467700;}.cls-6{fill:#ffce00;}.cls-7{fill:red;}.cls-8{fill:#78b442;}</style></defs><circle class="cls-1" cx="50" cy="50" r="50"/><g id="burger"><path class="cls-2" d="M46.31,80.51c-13.2,0-24.14-1.15-24.22-15.32C22.06,60.93,25,57,30.38,54c5.19-2.85,12.07-4.44,19.39-4.48h.32c15.4,0,27.5,6.72,27.55,15.31,0,7-2.68,11.49-8.32,13.66-5,1.91-11.84,2-19.12,2H46.31Z"/><path class="cls-3" d="M50.09,50.53c14.64,0,26.5,6.37,26.55,14.32C76.73,79.41,64.74,79.41,50,79.5l-3.63,0c-13.07,0-23.15-1-23.23-14.34C23,57.18,35,50.62,49.77,50.53h.32m0-2h-.33C33.62,48.63,21,56,21.09,65.19c.1,16.33,14.62,16.33,25.23,16.33l3.4,0h.49c7.37,0,14.34-.09,19.47-2.06,6.08-2.34,9-7.12,9-14.61,0-9.14-12.6-16.3-28.55-16.3Z"/><path class="cls-4" d="M49.77,50.53c-.59,0-1.17,0-1.75,0,14,.4,25.06,6.62,25.11,14.3.09,14-11,14.54-24.93,14.64H50c14.79-.09,26.78-.09,26.69-14.65C76.59,56.85,64.56,50.43,49.77,50.53Z"/><path class="cls-5" d="M46.25,68.77C33,68.77,22.1,67.61,22,53.44,22,44.75,34.12,37.87,49.69,37.78H50c15.4,0,27.51,6.72,27.56,15.31,0,7-2.68,11.49-8.33,13.66-4.95,1.91-11.83,2-19.11,2h-.48Z"/><path class="cls-3" d="M50,38.78c14.64,0,26.5,6.37,26.55,14.32.09,14.56-11.9,14.56-26.69,14.65l-3.63,0c-13.07,0-23.15-1-23.24-14.34-.05-8,11.9-14.56,26.69-14.65H50m0-2h-.33c-7.48,0-14.53,1.68-19.86,4.6C24.12,44.52,21,48.8,21,53.44c.11,16.33,14.63,16.33,25.24,16.33l3.4,0h.49c7.37,0,14.33-.09,19.46-2.06,6.08-2.34,9-7.12,9-14.61C78.51,43.94,66,36.78,50,36.78Z"/><path class="cls-6" d="M76.25,60.39C68.8,57.68,69,61,63.87,59.12s-8.46-5.44-7.53-8,7.62-2,12.89-.71C77.36,52.37,79.17,61.46,76.25,60.39Z"/><path class="cls-6" d="M39.68,49.76c1.19,2.43-1.79,6.34-6.65,8.73s-6.8-1.1-11-.09,1.59-7.24,6.46-9.63S38.48,47.32,39.68,49.76Z"/><ellipse class="cls-7" cx="40.87" cy="59.16" rx="9.82" ry="4.91" transform="translate(-9.55 7.89) rotate(-9.88)"/><ellipse class="cls-7" cx="58.03" cy="58.29" rx="4.91" ry="9.82" transform="translate(-8.48 106.68) rotate(-81.16)"/><path class="cls-8" d="M39.27,60.14a11.87,11.87,0,0,1-2.15-.2,7.92,7.92,0,0,1-5.78-3.86c-1.16-1.61-2.15-3-5.95-3.3-4.27-.32-5.45-2.4-5.77-3.6-.57-2.08.54-4.61,2.7-6.3C22.75,34.44,34.73,27.83,50,27.74h.32c15.18,0,27.16,6.53,27.55,15l.44.54c2.4,2.9,2.91,3.72,1.31,7.26-1.68,3.74-4.88,4.06-8,4.06l-2.12,0a15,15,0,0,0-4.69.57,22.45,22.45,0,0,0-4.2,2c-2,1.15-3.94,2.24-6.7,2.24h0a13.56,13.56,0,0,1-4-.67,10,10,0,0,0-3-.54,6.8,6.8,0,0,0-3.13.86A9.51,9.51,0,0,1,39.27,60.14Z"/><path class="cls-3" d="M50.31,28.74c14.65,0,26.51,6.37,26.56,14.32,2.79,3.42,3.36,3.62,1.83,7-1.43,3.17-4.08,3.47-7.1,3.47l-2.12,0a15.78,15.78,0,0,0-5,.62c-4.33,1.43-6.44,4.19-10.59,4.19a12.62,12.62,0,0,1-3.71-.63,11.17,11.17,0,0,0-3.31-.58c-3.13,0-4.08,2-7.6,2a11.43,11.43,0,0,1-2-.18c-6.54-1.13-3.84-6.56-11.82-7.17-6.87-.53-5.72-5.94-2.16-8.4,0-8,11.9-14.56,26.69-14.65h.31m0-2H50c-15.54.09-27.79,6.88-28.63,15.64-2.24,1.93-3.34,4.72-2.71,7.06.39,1.46,1.78,4,6.67,4.34,3.33.26,4.11,1.36,5.2,2.88A8.91,8.91,0,0,0,37,60.93a13.88,13.88,0,0,0,2.32.21,10.63,10.63,0,0,0,4.9-1.24,5.73,5.73,0,0,1,2.7-.77,9.4,9.4,0,0,1,2.72.49,14.49,14.49,0,0,0,4.3.72c3,0,5.14-1.21,7.19-2.37a21.52,21.52,0,0,1,4-1.92,13.93,13.93,0,0,1,4.37-.52H71.6c2.56,0,6.83,0,8.92-4.65,1.82-4,1-5.29-1.44-8.31l-.24-.29c-.71-8.79-13-15.56-28.52-15.56Z"/><path class="cls-2" d="M46.14,50.47C32.93,50.47,22,49.32,21.9,35.14c0-8.68,12.1-15.56,27.68-15.65h.32c15.4,0,27.5,6.73,27.56,15.32C77.55,50.29,64.79,50.37,50,50.46H46.14Z"/><path class="cls-3" d="M49.9,20.48c14.65,0,26.51,6.38,26.56,14.33.09,14.56-11.9,14.56-26.69,14.65H46.13c-13.07,0-23.15-1-23.23-14.33,0-8,11.9-14.56,26.69-14.65h.31m0-2h-.32c-16.14.1-28.74,7.42-28.68,16.66C21,51.47,35.53,51.47,46.13,51.47H50c7.38-.05,14.34-.09,19.47-2.06,6.08-2.34,9-7.12,9-14.61-.06-9.14-12.6-16.31-28.56-16.31Z"/><path class="cls-4" d="M56.2,20.89c9.88,2.47,16.88,8.59,16.93,15.8a20.68,20.68,0,0,1-1.86,9.6c3.29-2.1,5.22-5.6,5.19-11.48C76.41,28,67.8,22.41,56.2,20.89Z"/><ellipse class="cls-3" cx="56.08" cy="25.3" rx="1.9" ry="0.95" transform="translate(-4.69 34.91) rotate(-33.27)"/><ellipse class="cls-3" cx="32.05" cy="29.08" rx="1.9" ry="0.95" transform="translate(-11.23 29.25) rotate(-42.45)"/><ellipse class="cls-3" cx="48.86" cy="26.31" rx="0.95" ry="1.9" transform="translate(-1.54 49.53) rotate(-53.04)"/><ellipse class="cls-3" cx="45.29" cy="31.4" rx="1.9" ry="0.95" transform="translate(-3.39 5.56) rotate(-6.77)"/><ellipse class="cls-3" cx="59.7" cy="29.65" rx="0.95" ry="1.9" transform="translate(15.07 79.15) rotate(-74.38)"/><ellipse class="cls-3" cx="53.36" cy="30.86" rx="1.9" ry="0.95" transform="translate(12.3 76.83) rotate(-78.27)"/><ellipse class="cls-3" cx="65.19" cy="28.87" rx="0.95" ry="1.9" transform="translate(-1.16 54.97) rotate(-45.36)"/><ellipse class="cls-3" cx="37.61" cy="30.95" rx="0.95" ry="1.9" transform="matrix(0.6, -0.8, 0.8, 0.6, -9.74, 42.4)"/><ellipse class="cls-3" cx="42.09" cy="26.35" rx="1.9" ry="0.95" transform="translate(-1.63 49.9) rotate(-60.36)"/></g></svg>