<svg id="Calque_1" data-name="Calque 1" xmlns="http://www.w3.org/2000/svg" viewBox="0 0 100 100"><defs><style>.cls-1{fill:#013063;}.cls-2{fill:#9fd800;}</style></defs><circle class="cls-1" cx="50" cy="50" r="50"/><path class="cls-2" d="M60.15,14.4c-.22,3.25-.33,6.41-.25,9.57.42,16.7,4.91,32.16,14.23,46.11a86.21,86.21,0,0,0,10.78,13c.76.76.93,1.27.57,1.76s-1,.52-1.88.07a116.41,116.41,0,0,0-12.88-5.7,122.17,122.17,0,0,0-22.79-6.06,113.22,113.22,0,0,0-13.49-1.43,105.76,105.76,0,0,0-15.62.39q-2.1.23-4.2.48a.91.91,0,0,1-1-.45.81.81,0,0,1,.22-1,3.31,3.31,0,0,1,1.07-.7A71.75,71.75,0,0,0,38.12,52.08c8.75-10.29,14.62-22.1,18.46-35,.35-1.14.67-2.29,1-3.44a1.7,1.7,0,0,1,.52-.86,1.14,1.14,0,0,1,2,.68A6.32,6.32,0,0,1,60.15,14.4Z"/></svg>