<svg id="Calque_1" data-name="Calque 1" xmlns="http://www.w3.org/2000/svg" viewBox="0 0 100 100"><defs><style>.cls-1{fill:#38444b;}.cls-2{fill:#fff;}</style></defs><circle class="cls-1" cx="50" cy="50" r="50"/><path class="cls-2" d="M80.14,37.11a26.43,26.43,0,0,0-2.7,2.11c-2.88,2.31-5.73,4.63-8.6,6.94l-.4.29V28.19c0-.22,0-.44,0-.66h.22c0,.21.22.28.36.39,2.15,1.76,4.3,3.53,6.46,5.28L80.15,37A.45.45,0,0,0,80.14,37.11Z"/><path class="cls-2" d="M55.53,42c-1.56,1.42-3,2.8-4.34,4.24a85,85,0,0,0-8,10,.8.8,0,0,1-.77.38c-1.35,0-2.71,0-4.06,0a.71.71,0,0,1-.68-.33,86.08,86.08,0,0,0-9-11c-1.08-1.11-2.2-2.18-3.38-3.25a.87.87,0,0,0-.07.58c0,9.72,0,19.44,0,29.16,0,.52-.12.66-.66.65-1.43,0-2.86,0-4.28,0-.41,0-.49-.12-.49-.48q0-18.44,0-36.88c0-.39.12-.48.51-.48,1.47,0,2.92,0,4.39,0a1.2,1.2,0,0,1,.8.28A76.54,76.54,0,0,1,38.16,47.54c.76,1,1.49,1.91,2.26,2.89,1.13-1.41,2.2-2.81,3.33-4.18A74.82,74.82,0,0,1,55.2,35a1.47,1.47,0,0,1,1-.36c1.42,0,2.85,0,4.28,0,.36,0,.51.07.51.47Q61,53.57,61,72c0,.36-.11.45-.47.44-1.48,0-3,0-4.45,0-.47,0-.53-.15-.53-.56q0-13.15,0-26.31C55.53,44.45,55.53,43.28,55.53,42Z"/></svg>