<svg id="Calque_1" data-name="Calque 1" xmlns="http://www.w3.org/2000/svg" xmlns:xlink="http://www.w3.org/1999/xlink" viewBox="0 0 100 100"><defs><style>.cls-1{fill:none;}.cls-2{clip-path:url(#clip-path);}.cls-3{fill:#fff;}.cls-4{fill:#e1000f;}.cls-5{clip-path:url(#clip-path-2);}.cls-6{fill:#000091;fill-rule:evenodd;}.cls-7{fill:gray;}</style><clipPath id="clip-path"><circle class="cls-1" cx="-75" cy="50" r="50"/></clipPath><clipPath id="clip-path-2"><rect class="cls-1" y="0.01" width="100" height="100"/></clipPath></defs><g class="cls-2"><rect class="cls-3" x="-201.64" y="0.01" width="244.33" height="88.85"/><path class="cls-4" d="M42.69,0H-52.88A4.41,4.41,0,0,1-52,.43l2.41,1.29a8,8,0,0,1,3.2,2.68c.33.5.84,1.51.5,2.18-.33.84-.5,2.19-1.34,2.52a6.18,6.18,0,0,1-3.53.34,8.06,8.06,0,0,1-2-.34c2.51,1,4.86,2.19,6.54,4.54.17.33.84.5,1.52.5.16,0,.16.33.16.5-.33.34-.67.51-.5,1h.5c.84-.34.67-2,1.85-1.51A1.89,1.89,0,0,1-42,16.66a17.89,17.89,0,0,1-2,1.68,1.41,1.41,0,0,0,0,1.17,5.12,5.12,0,0,1,.83,2c.51,1.17.68,2.52,1.18,3.69a23.65,23.65,0,0,1,1.17,7.56c0,1.34-.67,2.51-.16,3.86a13.91,13.91,0,0,0,1.84,3.52,25.38,25.38,0,0,1,1.85,2.69c1,1.68,2.85,3.36,2,5.37-.51,1.18-2.35,1-3.53,1.68-1,.84-.17,2.18.34,3,.84,1.51-1,2.52-2.19,3,.34.51,1,.34,1.18.68.17.84,1,1.34.5,2.18-.67,1-2.68,1.51-1.68,3,.68,1.18.24,2.48-.16,3.69a4.1,4.1,0,0,1-3,2.52A6.71,6.71,0,0,1-47,68.2a2.42,2.42,0,0,0-1-.34c-2.86-.33-5.71-1.17-8.56-1.17a9.57,9.57,0,0,0-2.35.67,15.19,15.19,0,0,0-2,1.8l0,0-.36.41c-.08.08-.15.17-.22.25l-.14.18A15.68,15.68,0,0,0-63,72l-.08.13c0,.08-.08.16-.13.24a16.24,16.24,0,0,0-1.27,3.08c-1.14,3.84-.64,7.14.16,7.94.22.22,5.54,1.86,9.25,3.51a32.7,32.7,0,0,1,4,2H42.69Z"/></g><g class="cls-5"><rect class="cls-3" x="-94.5" width="275" height="100"/><path class="cls-6" d="M19.19,88.2c1.07-1.07,2.16-2.22,3.23-3.38a61.49,61.49,0,0,1,6.28-6.43,20.29,20.29,0,0,1,2.06-1.64,1.13,1.13,0,0,0,.19-.38.91.91,0,0,1,.19-.38,5.29,5.29,0,0,0-1.23.76,5.61,5.61,0,0,1-1.23.75c-.19,0-.38-.19-.19-.38l2-1.51h-.13c-.19,0-.19-.19-.19-.38-2.43-.37-4.31,1.3-6,2.8l0,0a.75.75,0,0,1-.7-.1.69.69,0,0,0-.25-.09,16.21,16.21,0,0,0-4.05,2.32h0a17.8,17.8,0,0,1-3.7,2.22V82a13.71,13.71,0,0,0-1.4.57,9.87,9.87,0,0,1-2,.75,13.89,13.89,0,0,1-3.59.21h0l-1.12,0A63.72,63.72,0,0,0,.46,84.77l-.1,0H.26a15.82,15.82,0,0,0-3.52,1.42.57.57,0,0,0-.13.08l-.27.32A4.53,4.53,0,0,1-5,87.77a11.32,11.32,0,0,0-2.25,1.69c-.29.26-.58.52-.88.77a.56.56,0,0,1-.31.09l-.93.9h0c-.7.68-1.4,1.36-2.11,2a1,1,0,0,1-.58.07c.06-.08.09-.14.13-.2l.48-.8.56-.88c.26-.39.53-.77.81-1.15A.17.17,0,0,0-10,90a.33.33,0,0,0-.26-.1,17.46,17.46,0,0,1,3.17-2.37c-.13,0-.31-.09-.22-.22s.14-.2.2-.3A1.59,1.59,0,0,1-7,86.83l.06-.17-.09-.09-.05,0a6.75,6.75,0,0,0-.89.62,3,3,0,0,0-.4.45h0c-.3.38-.61.78-1.09.78a1.35,1.35,0,0,1-.29,0,.48.48,0,0,1-.2-.07l0,0,0-.06,0,0,.09-.16.05-.09,0-.07.08-.13c0-.08.08-.16.13-.24l0-.07,0,0,0-.07A2.75,2.75,0,0,1-9.24,87h0l.07-.12.12-.2.08-.14h0l.06-.09.06-.1a.26.26,0,0,0,0-.21A.21.21,0,0,0-9,86,4.37,4.37,0,0,1-7.7,84.82h-.06c.5-.25,1-.54,1.5-.83h0l.67-.38.21-.18.11-.09a12.76,12.76,0,0,0-3,1.48A1.41,1.41,0,0,0-8.6,85a.47.47,0,0,1-.47-.17.18.18,0,0,1,0-.14,1.6,1.6,0,0,1,.6-.54,4.09,4.09,0,0,0,.53-.4c.19,0,.38,0,.38.19,3.75-2.94,8.37-3.61,13-4.29a44.29,44.29,0,0,0,8.34-1.76l1.7-1.14a5.67,5.67,0,0,0,1.39-.9,7.36,7.36,0,0,1,1.45-1,8.34,8.34,0,0,0,3.21-4.35.69.69,0,0,0-.19-.38A29.26,29.26,0,0,1,13,76.37c-2.86,1.5-5.91,1.72-9,1.94-1.17.08-2.35.17-3.51.33.19-.38.57-.38,1-.38A1.14,1.14,0,0,1,2,77.34l.23-.22h.57c.1,0,.14-.09.19-.18s.09-.19.19-.19c.38,0,.94-.19.75-.19-.28-.39-.72-.23-1.2-.07a1.63,1.63,0,0,1-1.44.07,1.2,1.2,0,0,0,.28-.62c.05-.22.09-.42.29-.52H2.6A1.29,1.29,0,0,1,3,74.67c1.68-1,3.3-1.89,4.89-2.75C9,71.33,10,70.75,11.11,70.13a1.54,1.54,0,0,0-.6.17.83.83,0,0,1-.91,0c.18,0,.18-.14.18-.28s0-.28.19-.28a20,20,0,0,0,3.34-1.36,26.22,26.22,0,0,1,2.52-1.1,2.86,2.86,0,0,0-.73.13,1.36,1.36,0,0,1-1.35-.13,2,2,0,0,0,.34-.23,1.17,1.17,0,0,1,.8-.34v-.56c0-.19.19-.19.37-.19a.66.66,0,0,1-.37-.19c.09-.2.29-.24.51-.29a1.2,1.2,0,0,0,.62-.28c-.19,0-.57,0-.57-.19a3.78,3.78,0,0,1,2.46-1.13c-.1-.19-.28-.19-.45-.19s-.31,0-.31-.19.19-.19.38-.19h-.38c-.29-.15-.24-.41-.21-.6h0a1,1,0,0,0,0-.16,6.61,6.61,0,0,0,1.26-3c.13-.52.26-1.05.44-1.55-.18,0-.37,0-.37-.19-1.84,2-4.74,2.79-7.5,3.52l-.25.07H9.6a3.86,3.86,0,0,1-3.22-.19,4.79,4.79,0,0,1-1.12-.85,9,9,0,0,0-.77-.66A21.16,21.16,0,0,0-.23,57.47a42.51,42.51,0,0,0-14.55-2.08,14.93,14.93,0,0,1,4.27-1.34c.78-.16,1.57-.32,2.34-.55l1.4-.42a23.36,23.36,0,0,1,8.24-1.47,3.31,3.31,0,0,0-1.3,0c-.21,0-.41,0-.59,0a23.22,23.22,0,0,0-6.48.79l-1.65.35a24.38,24.38,0,0,0-2.73.75,27.13,27.13,0,0,1-2.75.76,4.21,4.21,0,0,0-1.13.65,2.43,2.43,0,0,1-1.89.67V55c1.89-2.27,4.16-4.53,7.18-4.72a29.18,29.18,0,0,1,8.45.19h0l1.57.19A47.12,47.12,0,0,1,7.32,52c.52,0,.81.46,1.1.9s.45.72.79.8a5.41,5.41,0,0,0,1.36.21,3.83,3.83,0,0,1,2,.55,2.33,2.33,0,0,0,0-.38,1.24,1.24,0,0,1,0-.76,1.33,1.33,0,0,1,1.4-.2,1.49,1.49,0,0,0,1.06,0c1-.64,0-1.63-.92-2.61A8,8,0,0,1,13,49.15a.66.66,0,0,1,.19-.37c.45.39.87.81,1.29,1.22a13,13,0,0,0,3.25,2.56c.94.37,3.21.94,2.83-.19a17,17,0,0,0-2.92-4c-.49-.55-1-1.1-1.43-1.66v-.76a.45.45,0,0,1-.44-.22.79.79,0,0,0-.12-.15v-.76a1.31,1.31,0,0,1-.68-1,2.2,2.2,0,0,0-.27-.68,3.8,3.8,0,0,1-.36-1.83,5.88,5.88,0,0,0-.2-1.57,18.72,18.72,0,0,1-.76-3.21c-.22-1.26-.47-2.47-.72-3.64h0c-.38-1.83-.75-3.6-1-5.43-.29-2.77,1.1-5.08,2.53-7.47.43-.71.86-1.43,1.25-2.17a16.1,16.1,0,0,1,5.29-6c.57-2.26,2.07-4.14,3.58-6h0c1.51-1.85,4-3,5.83-3.78a50.83,50.83,0,0,1,5-1.92H-94.5V100H-2.66a44.89,44.89,0,0,1,8-4.32c1.3-.59,2.69-1.23,4.21-2l1-.49h0C13.22,91.92,17.58,89.81,19.19,88.2Zm-30-13.72c.13-.66.82-.86,1.48-1a4.73,4.73,0,0,0,.78-.27l.09,0,.11,0h0c.36-.19.81-.43,1.13-.27a1.13,1.13,0,0,0,.75.47,1.22,1.22,0,0,1,.57.28,3.32,3.32,0,0,1-2.33.82,5.19,5.19,0,0,0-1.64.32l-.32,0C-10.56,74.73-11,74.76-10.81,74.48Zm-22.11-14a59,59,0,0,1-6,9.63.66.66,0,0,0,.19.38c4.53-5.1,8.69-9.45,14.55-13,.14-.07.09,0,0,.09s-.3.41.17.29c2-.45,2.84-2.11,3.69-3.73.21-.4.42-.8.65-1.18a11.78,11.78,0,0,1,3.41-3.27,16.73,16.73,0,0,0,2.64-2.21.71.71,0,0,1-.19.56.67.67,0,0,0,.57.19,3.16,3.16,0,0,1,1-.45A2.06,2.06,0,0,0-11,47.08a7.36,7.36,0,0,0-4.92-.19A36.58,36.58,0,0,0-26.5,55.21,26.42,26.42,0,0,1-32.92,60.5Zm9.26-1.7a1.5,1.5,0,0,1-.76.75c-.19,0-.38,0-.38-.19a2.32,2.32,0,0,1,1.51-1.7c.19,0,.19.19.19.38a1.34,1.34,0,0,1-.3.4A1.34,1.34,0,0,0-23.66,58.8Zm9.12,28.39c.15-.14,0-.24-.25-.29a1.66,1.66,0,0,0,.47-.55c.15-.37-.85-.28-1-.17a2,2,0,0,0-.41.42q-.37.39-.78.75l-.61.58c-.26.25-.52.5-.79.74s.72.42.94.22.48-.43.71-.66a1,1,0,0,0,.29,0A3.94,3.94,0,0,0-14.54,87.19Zm-3.22-2.37L-18,85c-.63.45-1.27.89-1.93,1.28s-1.22.63-1.84.92l-.66.31a.08.08,0,0,0,0,0,.26.26,0,0,0-.32-.08,9.56,9.56,0,0,0-1.9,1.45l-.26.26-.3.29,0,0h0a4.42,4.42,0,0,0-.41.44,1.33,1.33,0,0,1-.26.27c-.11.07-.44.07-.41-.15v0h0l-.32.16-.28.15h0l-.13,0a.19.19,0,0,0-.13,0c-.24.18-.46.37-.69.57A10.07,10.07,0,0,0-29,92l-.06.07-.05.07-.06.08,0,0,0,0-.06.08,0,.07a.33.33,0,0,1-.16.09l0,0,0-.06,0-.06,0,0a2.11,2.11,0,0,1-.16-.3h0l0,0,0,0c.2-.22.4-.45.59-.68l0,0L-29,91l.32-.41.07-.09.05-.06.59-.79v0l0,0,.05-.07c.09-.14.18-.27.26-.41l.21-.38v0l0,0s0,0,0,0v0a4.07,4.07,0,0,0,.18-.44l0,0v0l0-.1.06-.21a.06.06,0,0,0,0,0l0-.07h0c0-.07,0-.14.05-.21a.16.16,0,0,0,0-.13,7.43,7.43,0,0,1,.75-1l0,0h0l0,0a2.66,2.66,0,0,0-.4.34l-.3.27c-.21.15-.59-.1-.35-.29a4,4,0,0,0,.43-.38,7.71,7.71,0,0,1,1-1l.08-.06c.18-.14.35-.25.5-.39a.12.12,0,0,0,.05,0l0,0a4.81,4.81,0,0,1,.42-.48h0a9.09,9.09,0,0,1,4.27-1.84,15.57,15.57,0,0,0,3-.94,3.22,3.22,0,0,1,1.69,0,4,4,0,0,0,1.33,0,2.84,2.84,0,0,1,1.71.38c-1.31.71-2.55,1.5-3.75,2.27l-1.07.67Zm3.17-13.55h1.51c-.11.21-.4.24-.59.26s-.25,0-.17.12a2.32,2.32,0,0,0,2.46,0,3.09,3.09,0,0,1,1.89-.37c.19,0,.19-.38.19-.57a4.05,4.05,0,0,0,1.51.19c4.53-1,8.88-1.89,13-4-4.2-3.23-9.36-4.66-14.42-6.07h0l-2.59-.73a1.94,1.94,0,0,1,.57.12.94.94,0,0,0,1.13-.12,3,3,0,0,0-1.65-.56,3.53,3.53,0,0,1-1.37-.39l.15,0c.2,0,.46.09.6-.21a10.27,10.27,0,0,0-3-.84h0c-.5-.08-1-.16-1.51-.29A1.84,1.84,0,0,0-15.35,56c0-.19-.38-.19-.57-.19a10.11,10.11,0,0,0-4.72,5.67,4.53,4.53,0,0,0,2.66.37,7.5,7.5,0,0,1,1.5,0,2.93,2.93,0,0,1-1.66.63l-.61.12c-.58.15-1.14.57-.95,1a.68.68,0,0,0,.43.27,2.68,2.68,0,0,0-1.18.67,1.94,1.94,0,0,0,1.62.25,4.62,4.62,0,0,1,.65-.06c0,.25.16.34.33.42h0a.76.76,0,0,1,.23.15,3.43,3.43,0,0,0-1.89,1.7,3.27,3.27,0,0,1-1.09,1.29h0a6,6,0,0,0-.8.79v.57c-.64.57-1.3,1.09-2,1.59h0a17,17,0,0,0-3.52,3.32c.19,0,.19.19.19.38a2.52,2.52,0,0,1-.66.6,1.62,1.62,0,0,0-.66.72c0,.19,0,.38.19.38a14.61,14.61,0,0,0,3.23-1.7,15.07,15.07,0,0,1,2.82-1.51,10.65,10.65,0,0,0,2.18-.92,10,10,0,0,1,1.78-.79c.48-.09,1-.23,1.51-.37h0c.52-.15,1-.29,1.52-.38C-14.78,71.08-14.78,71.27-14.59,71.27Zm8.71,16.65,0,0,0,0A3.45,3.45,0,0,0-5,87.13l0,0,0,0C-5.39,87.35-5.63,87.63-5.88,87.92ZM31,75.52l-.39.3C30.81,75.81,31,75.75,31,75.52Z"/><path class="cls-4" d="M180.5,0H72.93a5.25,5.25,0,0,1,1,.47l2.71,1.45a9,9,0,0,1,3.61,3c.37.57.94,1.7.56,2.46-.38.94-.56,2.46-1.51,2.83a7,7,0,0,1-4,.38,9.22,9.22,0,0,1-2.27-.38c2.84,1.14,5.48,2.46,7.37,5.11.19.37,1,.56,1.7.56.19,0,.19.38.19.57-.38.38-.75.57-.57,1.13h.57c1-.38.76-2.27,2.08-1.7a2.14,2.14,0,0,1,.76,2.84,21.66,21.66,0,0,1-2.27,1.89,1.6,1.6,0,0,0,0,1.32,5.83,5.83,0,0,1,.94,2.27c.57,1.32.76,2.83,1.32,4.16a26.42,26.42,0,0,1,1.33,8.5c0,1.51-.76,2.83-.19,4.35a15.78,15.78,0,0,0,2.08,4,30.35,30.35,0,0,1,2.08,3c1.13,1.89,3.21,3.78,2.27,6-.57,1.33-2.65,1.14-4,1.89-1.14,1-.19,2.46.37,3.4,1,1.71-1.13,2.84-2.45,3.41.38.56,1.13.37,1.32.75.19.95,1.13,1.51.57,2.46-.76,1.13-3,1.7-1.89,3.4.75,1.32.26,2.79-.19,4.16a4.64,4.64,0,0,1-3.4,2.83,7.66,7.66,0,0,1-3.59.19,2.71,2.71,0,0,0-1.13-.38C75.16,76,72,75.05,68.74,75.05a11.13,11.13,0,0,0-2.65.75,17,17,0,0,0-2.28,2l0,0-.41.46-.24.29c-.06.06-.11.13-.16.19A17.86,17.86,0,0,0,61.48,81a1.09,1.09,0,0,0-.08.15l-.15.26a19.06,19.06,0,0,0-1.43,3.47c-1.29,4.33-.72,8,.18,8.94.25.25,6.23,2.1,10.4,3.95A35.2,35.2,0,0,1,74.86,100H180.5Z"/><path class="cls-7" d="M79.32,36.48c.76.19,1.89.19,1.89.57-.37,1.51-2.64,1.89-3.78,3.4h-.56c-.57.38-.38,1.32-1,1.32a2.7,2.7,0,0,0-1.7.19,3.24,3.24,0,0,0,2.84,1.13.88.88,0,0,1,.57.76.54.54,0,0,0,.37-.19c.19,0,.38,0,.38.19v.76c-.57.75-1.51.37-2.27.56a8.44,8.44,0,0,0,4.35,0c1.13-.38,0-2.27.75-3.21-.37,0,0-.57-.37-.57.37-.37.75-.94,1.13-1.13a1.32,1.32,0,0,0,1.13-.57c0-.37-.75-.56-.56-.94,1.13-.76,2.08-1.89,1.7-3-.19-.56-1.7-.56-2.65-.94s-2.08,0-3.21.19a16.45,16.45,0,0,0-2.83.75A13.12,13.12,0,0,0,72,37.61a27.08,27.08,0,0,1,4.15-1.13A12.32,12.32,0,0,1,79.32,36.48Z"/></g></svg>