<svg id="Calque_1" data-name="Calque 1" xmlns="http://www.w3.org/2000/svg" viewBox="0 0 100 100"><defs><style>.cls-1{fill:#5d59f5;}.cls-2{fill:#fff;}</style></defs><circle class="cls-1" cx="50" cy="50" r="50"/><path class="cls-2" d="M78.88,71.13c-1-2.62-2.19-5.18-3-7.87a15.14,15.14,0,0,1-.75-6.94,54.42,54.42,0,0,0,.68-10.74A27.43,27.43,0,0,0,74.69,39a22.91,22.91,0,0,0-2.23-5.14A27.57,27.57,0,1,0,47,73.52c.67,0,1.34.1,2,.13,1.74.09,3.51,0,5.26.09a20.73,20.73,0,0,1,12.5,4.61,17,17,0,0,0,4.83,3,6.57,6.57,0,0,0,8.24-4.91A10.19,10.19,0,0,0,78.88,71.13ZM67.67,66a3.51,3.51,0,0,1-4.12,1.83,12.09,12.09,0,0,1-3.65-1.72,24.5,24.5,0,0,0-3.63-2,15.24,15.24,0,0,0-6-1.21,22.85,22.85,0,0,1-9.92-1.77c-6-2.85-9.52-7.63-10.09-14.31a16.94,16.94,0,0,1,15-18c6.71-.86,12.19,1.52,16.53,6.68,2.94,3.5,3.85,7.58,3.76,11.95,0,1.62-.17,3.17-.27,4.74A16.75,16.75,0,0,0,66.47,59,38.74,38.74,0,0,1,68,63.26,3.7,3.7,0,0,1,67.67,66Z"/><path class="cls-2" d="M48.34,33.56a12,12,0,1,0,12,12A12,12,0,0,0,48.34,33.56Zm6.81,10.95c-2.12,1.14-4.25,2.26-6.41,3.32a1.56,1.56,0,0,1-2.37-1.46c0-1.27,0-2.53,0-3.8h0c0-1.19,0-2.38,0-3.56a1.66,1.66,0,0,1,1.58-1.8,1.61,1.61,0,0,1,1.57,1.72c.06,1.19,0,2.38,0,3.57s0,1.21,1.08.71l3-1.42a1.61,1.61,0,0,1,2.26.54A1.55,1.55,0,0,1,55.15,44.51Z"/></svg>