<svg id="Calque_1" data-name="Calque 1" xmlns="http://www.w3.org/2000/svg" viewBox="0 0 100 100"><defs><style>.cls-1,.cls-2{fill:#388fc1;}.cls-1,.cls-3{fill-rule:evenodd;}.cls-3,.cls-4{fill:#067090;}</style></defs><path class="cls-1" d="M9.81,28.79c-5.35-5-3.24-13.5-1.82-17,.89-2.21,2.06-1.42,3.29,2.5.79,2.41,3.83,10.31,3,11.88S11.72,30.6,9.81,28.79Zm21,35.62c-.54.84-.1,1.67,1,2.11s4.27-.1,5.1,2.5,0,9.62-.73,12.17.34,3.29,1,3.83c2.84,2.11,8.78,4.66,17-.1,5.59-3.24,20.56-19.28,21.78-22.37,1-2.51.2-2.06-1.66-1.43-5.65,2-15.85,5.21-26.26,15.61-1.86,1.86-3.24,2.16-4.9,1.86C39.5,78,38.12,67,39.74,62.55c.59-1.62.25-2.21-.44-2.51-.49-.24-1-.49-2.7,0-3.48.94-5.74,4.37-5.74,4.37Z"/><path class="cls-2" d="M49.56,23.39c-.84-1.62-5.84-3.14-8.25-3.78-1.81-.49-.78,1.91-.19,3.49C42.2,26,46.81,30,49.65,29.18c1.57-.49.94-3.88-.09-5.79ZM46.12,36.2c-2.21-.79-8.93-1.33-11.19-1.62-2.06-.3-.59,1.67,0,3.53s7.27,5.69,9.82,3.78C46.12,40.81,47.94,36.83,46.12,36.2Zm28.07.19c1.32-.44,5.35-.59,6.67-.78s1,1.57.1,2.4c-1.81,1.62-4.12,3.58-5.79,2.21-.88-.74-2.06-3.43-1-3.83ZM62.46,21.62a1.77,1.77,0,0,0,1.87-1.57c.59-3.53-1.87-8.93-2.85-10.89-.83-1.62-3.68-2.85-3.73-1.82-.24,5.11-1.81,8-.24,11.49C58.24,20.49,62.46,21.62,62.46,21.62Z"/><path class="cls-3" d="M10.64,71.87c1.38-.44,3.29-1.42,2.51-1.86C6.77,67,3.77,57.2,5.2,44.29c.19-1.37-1.38.25-1.92,1.77C2.94,47-7.46,77.07,10.64,71.87Zm71.65-13.1c2.06,2.35,7.26,10.4,7.45,13.44.25,3.93-4,5.65-6.08,6.68s-26.06,8-30.33,12.17c-2.94,2.89.1,1.81,1.53,1.62,6.42-1.18,25.46-.25,36.16-3.83,10.5-3.53,9.37-12.66,8.34-15.75-1.13-3.39-7.06-13.45-16.14-16.44-3.19-1.08-2.36.49-.93,2.11Z"/><path class="cls-4" d="M56.28,51.11c-1.08-1-2.41-2.4-1.77-2.65,1.38-.58,6.19-2.4,7.56-3.77,3.19-3.24,4-14-4.81-16.2-1.08-.29-.64-1.57,1.77-1.67C71.2,26.09,72,38.9,70.36,44c-1.18,3.78-4,4.61-3,6.77s5.45,2.36,6.72,3.39c.54.44-.59.88-2.16,1.13-1.52,0-10.79.49-15.65-4.18Z"/><path class="cls-1" d="M28.46,91.25c-.74-.34-1.82-2.89-2.95-4.51-.83-1.13-2.75-3.78-3.58-5.15-1.62-2.6-10.45-32.24-11.09-36-.59-3.24-1-6.87-.05-8.49,1.13-1.87,7.31-4.91,7.8-4C20,35.76,23.7,68.29,29.93,90.57c.29,1-1,.93-1.47.68Zm41.41-65A3.93,3.93,0,0,1,72,23.39a9.22,9.22,0,0,1,3.78-.74c1.57.05,2.7.35,2.21,1.13s-2.6,4.66-5.06,5.4C71,29.77,70,26.82,69.87,26.28Z"/></svg>