<svg id="Calque_1" data-name="Calque 1" xmlns="http://www.w3.org/2000/svg" xmlns:xlink="http://www.w3.org/1999/xlink" viewBox="0 0 100 100"><defs><style>.cls-1{fill:none;}.cls-2{clip-path:url(#clip-path);}.cls-3{fill:#fff;}.cls-4{fill:#000091;fill-rule:evenodd;}.cls-5{fill:#e1000f;}.cls-6{fill:gray;}</style><clipPath id="clip-path"><circle class="cls-1" cx="50" cy="50" r="50"/></clipPath></defs><g class="cls-2"><rect class="cls-3" x="-76.64" y="0.01" width="244.33" height="88.85"/><path class="cls-4" d="M24.37,78.38c1-1,1.92-2,2.88-3a55.6,55.6,0,0,1,5.57-5.71,17,17,0,0,1,1.83-1.46.78.78,0,0,0,.17-.34.74.74,0,0,1,.17-.33,4.43,4.43,0,0,0-1.09.67,5,5,0,0,1-1.09.67c-.17,0-.34-.17-.17-.34l1.79-1.34h-.11c-.17,0-.17-.17-.17-.34C32,66.52,30.32,68,28.81,69.34l0,0a.73.73,0,0,1-.63-.08.5.5,0,0,0-.21-.09,13.79,13.79,0,0,0-3.6,2.07h0a16.07,16.07,0,0,1-3.29,2V72.9a13,13,0,0,0-1.24.51,9.1,9.1,0,0,1-1.78.66,12.1,12.1,0,0,1-3.19.19h0l-1,0a54.87,54.87,0,0,0-6.1,1.09l-.09,0H7.55a14.56,14.56,0,0,0-3.12,1.26l-.12.07L4.07,77a4.23,4.23,0,0,1-1.15,1,9.87,9.87,0,0,0-2,1.5c-.26.24-.52.47-.79.69a.5.5,0,0,1-.27.08l-.82.8h0l-1.88,1.79a.89.89,0,0,1-.51.06c0-.07.08-.12.11-.18.14-.23.28-.47.43-.7s.33-.53.5-.78.46-.69.71-1a.16.16,0,0,0,0-.22.31.31,0,0,0-.24-.08A15.71,15.71,0,0,1,1,77.81c-.11,0-.28-.08-.19-.19s.12-.18.17-.27l.12-.19s0-.1,0-.15a.3.3,0,0,0-.08-.08l0-.05a4.85,4.85,0,0,0-.79.55,2.83,2.83,0,0,0-.36.4h0c-.26.34-.54.7-1,.69a1,1,0,0,1-.25,0,.48.48,0,0,1-.18-.06l0,0,0,0,0,0,.08-.15,0-.07,0-.07.06-.12.12-.21,0-.06,0,0,0-.06.15-.26h0l.07-.11.1-.18.08-.13h0l.05-.09,0-.09a.19.19,0,0,0,0-.18.23.23,0,0,0-.15-.12,4.07,4.07,0,0,1,1.15-1h0c.45-.22.89-.48,1.33-.73h0l.6-.35.19-.16.09-.08A11.45,11.45,0,0,0,0,75.37a1.25,1.25,0,0,0-.28.15.4.4,0,0,1-.42-.15.17.17,0,0,1,0-.12,1.41,1.41,0,0,1,.53-.49,2.61,2.61,0,0,0,.47-.35c.17,0,.34,0,.34.17C3.9,72,8,71.37,12.13,70.77a39.5,39.5,0,0,0,7.41-1.57l1.51-1a5.33,5.33,0,0,0,1.23-.81,7.65,7.65,0,0,1,1.29-.87,7.31,7.31,0,0,0,2.85-3.86.54.54,0,0,0-.16-.34,26.06,26.06,0,0,1-7.39,5.54c-2.54,1.33-5.26,1.53-8,1.72-1.05.08-2.09.16-3.12.3.17-.34.5-.34.84-.34a1,1,0,0,1,.46-.81l.21-.2h.5c.09,0,.13-.08.17-.16s.09-.17.17-.17c.33,0,.84-.17.67-.17-.25-.34-.64-.21-1.07-.06A1.44,1.44,0,0,1,8.46,68a1,1,0,0,0,.25-.55c0-.19.08-.37.25-.46h.68a1.15,1.15,0,0,1,.33-.67c1.5-.9,2.93-1.68,4.35-2.44,1-.53,1.92-1,2.87-1.59a1.4,1.4,0,0,0-.53.15.72.72,0,0,1-.81,0c.17,0,.17-.13.17-.25s0-.25.17-.25a17.84,17.84,0,0,0,3-1.21c.72-.34,1.45-.69,2.24-1a2.34,2.34,0,0,0-.65.12,1.2,1.2,0,0,1-1.2-.12,1.57,1.57,0,0,0,.3-.2,1,1,0,0,1,.71-.3v-.5c0-.17.17-.17.34-.17a.61.61,0,0,1-.34-.17c.09-.17.26-.21.46-.26a1,1,0,0,0,.55-.24c-.17,0-.51,0-.51-.17a3.38,3.38,0,0,1,2.19-1c-.09-.17-.26-.17-.4-.17s-.28,0-.28-.16.17-.17.34-.17h-.34c-.26-.13-.21-.36-.18-.54h0a.83.83,0,0,0,0-.13A6.09,6.09,0,0,0,23.52,53a10.41,10.41,0,0,1,.39-1.38c-.17,0-.34,0-.34-.17-1.63,1.79-4.21,2.48-6.66,3.13l-.22.06h-.84A3.45,3.45,0,0,1,13,54.43a4,4,0,0,1-1-.76,8.2,8.2,0,0,0-.68-.58,19.56,19.56,0,0,0-4.2-2A37.8,37.8,0,0,0-5.81,49.22,13.32,13.32,0,0,1-2,48c.69-.14,1.39-.28,2.08-.49l1.24-.37a20.7,20.7,0,0,1,7.32-1.31,2.94,2.94,0,0,0-1.15,0l-.53,0a20.7,20.7,0,0,0-5.76.71l-1.46.3a23.44,23.44,0,0,0-2.43.67,22,22,0,0,1-2.44.68,3.2,3.2,0,0,0-1,.58,2.21,2.21,0,0,1-1.69.59v-.5c1.68-2,3.7-4,6.39-4.2a25.82,25.82,0,0,1,7.5.17h0L7.45,45a41.65,41.65,0,0,1,6.38,1.17c.46,0,.72.41,1,.8s.41.64.71.71a4.62,4.62,0,0,0,1.21.19,3.42,3.42,0,0,1,1.81.48,1.86,1.86,0,0,0,0-.33,1.1,1.1,0,0,1,0-.67,1.18,1.18,0,0,1,1.24-.18,1.38,1.38,0,0,0,.94,0c.92-.57.05-1.45-.81-2.32a6.65,6.65,0,0,1-1-1.21.6.6,0,0,1,.16-.33c.41.35.78.72,1.15,1.08a11.17,11.17,0,0,0,2.88,2.27c.84.34,2.86.84,2.52-.16A15.07,15.07,0,0,0,23,43c-.43-.48-.86-1-1.26-1.47v-.67a.4.4,0,0,1-.39-.2l-.11-.14v-.67a1.21,1.21,0,0,1-.61-.9,2,2,0,0,0-.23-.61,3.33,3.33,0,0,1-.32-1.63,5.06,5.06,0,0,0-.19-1.39,18.72,18.72,0,0,1-.67-2.85c-.19-1.12-.42-2.19-.64-3.24h0c-.33-1.62-.66-3.19-.87-4.82-.26-2.46,1-4.52,2.25-6.64.38-.63.76-1.27,1.11-1.92a14.38,14.38,0,0,1,4.7-5.38,14.7,14.7,0,0,1,3.18-5.36h0c1.34-1.64,3.57-2.64,5.18-3.36S37.07.5,38.58,0H-76.64V88.85H5A39.81,39.81,0,0,1,12.07,85c1.15-.53,2.39-1.09,3.74-1.76l.89-.43h0C19.07,81.68,22.94,79.81,24.37,78.38ZM-2.28,66.18c.11-.59.73-.76,1.31-.93A4.1,4.1,0,0,0-.27,65l.08,0,.09,0h0c.32-.17.72-.39,1-.25a1,1,0,0,0,.67.42,1.18,1.18,0,0,1,.5.25A3,3,0,0,1,0,66.07a4.5,4.5,0,0,0-1.45.28l-.29,0C-2.06,66.4-2.41,66.44-2.28,66.18ZM-21.93,53.76a52.33,52.33,0,0,1-5.37,8.56.61.61,0,0,0,.17.34c4-4.54,7.72-8.4,12.92-11.59.13-.06.09,0,0,.08s-.26.36.15.26c1.75-.4,2.53-1.88,3.28-3.31.19-.36.38-.72.58-1.06a10.36,10.36,0,0,1,3-2.9,14.91,14.91,0,0,0,2.34-2,.64.64,0,0,1-.17.51.62.62,0,0,0,.5.17,2.53,2.53,0,0,1,.93-.4,1.87,1.87,0,0,0,1.09-.61,6.5,6.5,0,0,0-4.37-.17,32.74,32.74,0,0,0-9.4,7.39A23.37,23.37,0,0,1-21.93,53.76Zm8.23-1.51a1.29,1.29,0,0,1-.67.67c-.17,0-.34,0-.34-.17a2.05,2.05,0,0,1,1.34-1.51c.17,0,.17.17.17.34a1.14,1.14,0,0,1-.26.35A1,1,0,0,0-13.7,52.25Zm8.11,25.23c.13-.12,0-.22-.22-.26a1.49,1.49,0,0,0,.41-.49c.14-.33-.75-.25-.89-.15a1.58,1.58,0,0,0-.36.37,8.9,8.9,0,0,1-.7.67c-.18.16-.36.34-.54.51s-.46.45-.7.66.64.38.84.2l.63-.59a1.07,1.07,0,0,0,.25,0A3.69,3.69,0,0,0-5.59,77.48Zm-2.86-2.11-.2.14c-.56.4-1.13.8-1.72,1.14s-1.08.56-1.63.82l-.58.27,0,0a.23.23,0,0,0-.29-.07,7.75,7.75,0,0,0-1.68,1.29l-.24.22-.26.27,0,0h0c-.12.12-.24.24-.37.39a1,1,0,0,1-.22.24c-.11.07-.39.06-.37-.13v0h0l-.29.15-.24.13h0a.2.2,0,0,0-.11,0,.16.16,0,0,0-.12,0c-.21.16-.41.33-.61.51a8,8,0,0,0-1,1l0,.06-.05.06-.06.07v0l0,0-.05.07,0,.06a.23.23,0,0,1-.14.08l0,0,0,0,0-.05,0,0c-.05-.08-.09-.17-.14-.26h0l0,0,0,0c.18-.19.35-.4.52-.6l0,0,.17-.22.28-.36.06-.08.05-.05c.18-.24.36-.48.52-.71v0l0,0,0-.06.23-.36.18-.34v0l0,0v0l0,0c.06-.13.11-.26.16-.39v-.07l0-.09a1.21,1.21,0,0,0,.05-.18.08.08,0,0,0,0,0l0-.06h0c0-.06,0-.12,0-.19a.14.14,0,0,0,0-.11,5.42,5.42,0,0,1,.66-.91l0,0h0l0,0a2,2,0,0,0-.35.29,2.09,2.09,0,0,1-.28.24c-.18.14-.51-.09-.3-.25a4.17,4.17,0,0,0,.38-.34,7.31,7.31,0,0,1,.88-.88l.07-.06a3.93,3.93,0,0,0,.44-.34l.05,0,0,0a3.81,3.81,0,0,1,.37-.43h0A8,8,0,0,1-11,73.23a14.49,14.49,0,0,0,2.64-.83,2.82,2.82,0,0,1,1.5,0,4,4,0,0,0,1.19,0,2.44,2.44,0,0,1,1.51.33c-1.17.64-2.26,1.33-3.33,2l-1,.6Zm2.81-12H-4.3c-.09.19-.35.22-.52.24s-.22,0-.15.1c.5.5,1.51.33,2.18,0a2.8,2.8,0,0,1,1.68-.33c.17,0,.17-.34.17-.51A3.59,3.59,0,0,0,.4,63,46.65,46.65,0,0,0,12,59.47C8.26,56.6,3.67,55.32-.83,54.07h0l-2.29-.65a1.88,1.88,0,0,1,.5.11c.34.12.67.23,1-.11a2.85,2.85,0,0,0-1.47-.5,2.94,2.94,0,0,1-1.22-.34l.14,0c.17,0,.4.08.53-.18a9,9,0,0,0-2.68-.75h0c-.45-.07-.9-.15-1.35-.26a1.64,1.64,0,0,0,1.35-1.68c0-.17-.34-.17-.51-.17a9,9,0,0,0-4.2,5,4,4,0,0,0,2.37.33,6.57,6.57,0,0,1,1.33,0,2.66,2.66,0,0,1-1.47.57,4.86,4.86,0,0,0-.55.11c-.51.12-1,.5-.84.83a.61.61,0,0,0,.38.25,2.44,2.44,0,0,0-1,.59,1.75,1.75,0,0,0,1.44.23,3.8,3.8,0,0,1,.58-.06c0,.23.15.3.3.38h0a.53.53,0,0,1,.2.13A3,3,0,0,0-10,59.47a3.07,3.07,0,0,1-1,1.15h0a3.92,3.92,0,0,0-.72.69v.51c-.57.51-1.16,1-1.74,1.42h0a14.73,14.73,0,0,0-3.13,2.94c.17,0,.17.17.17.34a2.12,2.12,0,0,1-.58.54,1.37,1.37,0,0,0-.59.63c0,.17,0,.34.17.34a13.3,13.3,0,0,0,2.87-1.51A12.6,12.6,0,0,1-12,65.18a8.91,8.91,0,0,0,1.94-.82,9.53,9.53,0,0,1,1.58-.7c.42-.08.88-.21,1.35-.33h0c.46-.13.92-.25,1.34-.34C-5.81,63.16-5.81,63.33-5.64,63.33ZM2.1,78.13l0,0,0,0a3.16,3.16,0,0,0,.67-.65l0,0h0C2.54,77.62,2.32,77.86,2.1,78.13Zm32.75-11-.35.26C34.69,67.36,34.85,67.31,34.85,67.11Z"/><path class="cls-5" d="M167.69,0H72.12A4.41,4.41,0,0,1,73,.43l2.41,1.29a8,8,0,0,1,3.2,2.68c.33.5.84,1.51.5,2.18-.33.84-.5,2.19-1.34,2.52a6.18,6.18,0,0,1-3.53.34,8.06,8.06,0,0,1-2-.34c2.51,1,4.86,2.19,6.54,4.54.17.33.84.5,1.52.5.16,0,.16.33.16.5-.33.34-.67.51-.5,1h.5c.84-.34.67-2,1.85-1.51A1.89,1.89,0,0,1,83,16.66a17.89,17.89,0,0,1-2,1.68,1.41,1.41,0,0,0,0,1.17,5.12,5.12,0,0,1,.83,2c.51,1.17.68,2.52,1.18,3.69a23.65,23.65,0,0,1,1.17,7.56c0,1.34-.67,2.51-.16,3.86a13.91,13.91,0,0,0,1.84,3.52,25.38,25.38,0,0,1,1.85,2.69c1,1.68,2.85,3.36,2,5.37-.51,1.18-2.35,1-3.53,1.68-1,.84-.17,2.18.34,3,.84,1.51-1,2.52-2.19,3,.34.51,1,.34,1.18.68.17.84,1,1.34.5,2.18-.67,1-2.68,1.51-1.68,3,.68,1.18.24,2.48-.16,3.69a4.1,4.1,0,0,1-3,2.52A6.71,6.71,0,0,1,78,68.2a2.42,2.42,0,0,0-1-.34c-2.86-.33-5.71-1.17-8.56-1.17a9.57,9.57,0,0,0-2.35.67,15.19,15.19,0,0,0-2,1.8l0,0-.36.41c-.08.08-.15.17-.22.25l-.14.18A15.68,15.68,0,0,0,62,72l-.08.13c0,.08-.08.16-.13.24a16.24,16.24,0,0,0-1.27,3.08c-1.14,3.84-.64,7.14.16,7.94.22.22,5.54,1.86,9.25,3.51a32.7,32.7,0,0,1,4,2h93.85Z"/><path class="cls-6" d="M77.8,32.42c.67.17,1.68.17,1.68.51-.33,1.34-2.35,1.67-3.36,3h-.5c-.5.33-.33,1.17-.84,1.17a2.38,2.38,0,0,0-1.51.17,2.88,2.88,0,0,0,2.52,1,.73.73,0,0,1,.5.67.51.51,0,0,0,.34-.17c.17,0,.33,0,.33.17v.67c-.5.67-1.34.34-2,.5a7.43,7.43,0,0,0,3.86,0c1-.33,0-2,.67-2.85-.33,0,0-.5-.33-.5a5.63,5.63,0,0,1,1-1,1.21,1.21,0,0,0,1-.5c0-.34-.67-.51-.5-.84,1-.67,1.84-1.68,1.51-2.69-.17-.5-1.51-.5-2.35-.84a5.67,5.67,0,0,0-2.86.17,13.82,13.82,0,0,0-2.52.67,11.69,11.69,0,0,0-3.18,1.68,23.41,23.41,0,0,1,3.69-1A10.88,10.88,0,0,1,77.8,32.42Z"/></g></svg>