<svg id="Calque_1" data-name="Calque 1" xmlns="http://www.w3.org/2000/svg" viewBox="0 0 100 100"><defs><style>.cls-1{fill:#e2c381;}</style></defs><path class="cls-1" d="M73.54,5.89a1,1,0,0,0,0,.45c1.19,4.83,0,9.18-2.52,13.34-3.38,5.53-8.1,9.83-12.8,14.15a17.1,17.1,0,0,0-3.8,4.11,22.9,22.9,0,0,1,7.87-1.2c7,.16,11.47,4.78,11.22,11.76a9.05,9.05,0,0,1-13.43,7.82c-4.71-2.45-5.19-8.44-.88-11.17a5.33,5.33,0,0,1,5.36,1c.86,2.9.24,3.85-2.84,4.65-.64.17-1.73-.2-1.82.82a2.51,2.51,0,0,0,1.24,2,4.43,4.43,0,0,0,2.26.88c3.61.39,6.08-1.06,7.34-4.37A8,8,0,0,0,67.89,41c-4.52-3-13.82-1.49-17.16,2.81-3.6,4.64-4.44,9.94-3.32,15.53a15.84,15.84,0,0,0,21,12,5,5,0,0,0,2.94-6.81A3.16,3.16,0,0,0,66.83,63c-.79.52-1.63,1.12-.2,1.93a1.68,1.68,0,0,1,.72,2.5,2.29,2.29,0,0,1-2.73,1.11c-2.25-.53-3.24-3-2.07-5.3a5.63,5.63,0,0,1,7.28-2.82,6.27,6.27,0,0,1,4,7.49c-.88,4.27-4.57,7-9.88,7.23a18.77,18.77,0,0,1-20-19C44,49,45.79,42.19,48,35.5a13,13,0,0,0,1-6,7.63,7.63,0,0,0-5.34-6.45,9.36,9.36,0,0,0-9.32,1.43c-3,2.37-3.61,7.55-1.31,9.63.76.69,1.48,1.64,2.14-.37s2.47-2.29,4.31-1.74a3.38,3.38,0,0,1,1.92,4.43A5.07,5.07,0,0,1,35.3,39.6a9,9,0,0,1-6.67-8.18C28.51,26.92,30,23,34.24,21.08s8.87-2,12.92.65c4.56,3,5.38,7.52,4.1,12.57-.69,2-.69,2,0,2.47C57,31.4,62.85,26.15,67.6,19.83a16,16,0,0,0,3.46-11,8,8,0,0,0-3-5.47,48.62,48.62,0,0,0-7.31-2.21,6.7,6.7,0,0,0-1.67.51c-1.82.85-3.3,3.47-2.84,5.26.3,1.15.69,2.28,2.35,1.12,1.89-1.32,3.91-1,4.93.64A4,4,0,0,1,62.46,14a5.88,5.88,0,0,1-8.29-1.33c-2.7-3.53-1.91-7.15.06-10.55C54.84,1,55,.5,54.69.23,53.15.08,51.58,0,50,0A50,50,0,0,0,25.32,93.48c2.6-6.86,12.75-13.76,18.48-11.93a23.68,23.68,0,0,0-7.91,10.56,11.75,11.75,0,0,1-3,4.88,50.21,50.21,0,0,0,34.33,0c.39-1.26.78-2.51,1.23-3.74.68-1.83,2.23-1.91,3.66-1.49,1.67.49.47,1.74.34,2.65,0,.11,0,.23-.08.34A50,50,0,0,0,73.54,5.89ZM27.16,52.83c2-1.42,4.72-.95,6.59,1.17a19.57,19.57,0,0,1,2.72,4.92c1.74,3.76,3.76,7.27,7.21,9.91a11,11,0,0,1-6.87-1.19c-4.15-2-8.24-4.11-10.69-8.28C24.64,56.84,25.08,54.3,27.16,52.83ZM46.22,75.36c-.45.11-1-.07-1.39.23-5.81.28-11.25,2.12-16.66,4-3.82,1.32-7.61,1.83-11.53.51-3.07-1-4.75-3-4.61-5.6.13-2.36,2.31-4.5,5.25-5.15a19.19,19.19,0,0,1,10.16.56c6.16,2,12.35,3.85,18.87,4.29C47.07,74.65,47.31,75.08,46.22,75.36Z"/></svg>