<svg id="Calque_1" data-name="Calque 1" xmlns="http://www.w3.org/2000/svg" xmlns:xlink="http://www.w3.org/1999/xlink" viewBox="0 0 100 100"><defs><style>.cls-1{fill:url(#Dégradé_sans_nom_2);}</style><linearGradient id="Dégradé_sans_nom_2" x1="100.35" y1="-847.67" x2="1.29" y2="-946.75" gradientTransform="matrix(1, 0, 0, -1, 0, -848)" gradientUnits="userSpaceOnUse"><stop offset="0.05" stop-color="#42b8eb"/><stop offset="0.1" stop-color="#3eaade"/><stop offset="0.32" stop-color="#2e73ad"/><stop offset="0.51" stop-color="#234c89"/><stop offset="0.66" stop-color="#1c3373"/><stop offset="0.75" stop-color="#192a6b"/></linearGradient></defs><path class="cls-1" d="M98.12,0H29.29L.79,28.5a2.85,2.85,0,0,0-.79,2V46.83H16.81V30.38a.8.8,0,0,1,.79-.8h9.17a.8.8,0,0,1,.79.8V46.75H43.87a.8.8,0,0,1,.79.8v9.16a.8.8,0,0,1-.79.79H27.56V73.88a.81.81,0,0,1-.79.8H17.6a.81.81,0,0,1-.79-.8V57.58H0V97.19A2.82,2.82,0,0,0,2.81,100H69.55a3.11,3.11,0,0,0,2-.79L100,70.71V1.88A1.86,1.86,0,0,0,98.12,0ZM85.86,74.75h-11a.67.67,0,0,1-.58-.29L64.07,60.61,53.82,74.46a.64.64,0,0,1-.57.29H42.42a.73.73,0,0,1-.57-1.23L57.43,52.45a.74.74,0,0,0,0-.93L41.7,30.3a.46.46,0,0,1,.36-.72H53.54a.76.76,0,0,1,.57.29l10,13.42L74,29.8a.66.66,0,0,1,.58-.29H86.08a.46.46,0,0,1,.36.72L70.78,51.59a.64.64,0,0,0,0,.86L86.44,73.67C86.8,74,86.44,74.75,85.86,74.75Z"/></svg>