<svg id="Calque_1" data-name="Calque 1" xmlns="http://www.w3.org/2000/svg" viewBox="0 0 100 100"><defs><style>.cls-1{fill:#8d4c1d;}</style></defs><circle cx="50" cy="50" r="50"/><path class="cls-1" d="M49.69,75.57a36,36,0,0,1-15.76-3.33A27.28,27.28,0,0,1,23,63.14a22.41,22.41,0,0,1-4-13.09,22.48,22.48,0,0,1,4-13.19,27.65,27.65,0,0,1,11-9.1,36,36,0,0,1,15.77-3.33A47,47,0,0,1,65,26.87a34,34,0,0,1,12,6.75l-4,5.91a34.6,34.6,0,0,0-6.38-4.22,39,39,0,0,0-8.21-3.14A36.23,36.23,0,0,0,49.13,31a25.74,25.74,0,0,0-11.59,2.53,20.5,20.5,0,0,0-8,6.76,16.26,16.26,0,0,0-2.82,9.76,16,16,0,0,0,3,9.85,20.57,20.57,0,0,0,8.16,6.61A26.06,26.06,0,0,0,49,68.9a42.35,42.35,0,0,0,10-1.07,43.79,43.79,0,0,0,7.79-2.63,56.31,56.31,0,0,0,6-3.15l3.94,5.82a59.83,59.83,0,0,1-11.92,5.45A47.41,47.41,0,0,1,49.69,75.57Z"/></svg>