<svg id="Calque_1" data-name="Calque 1" xmlns="http://www.w3.org/2000/svg" xmlns:xlink="http://www.w3.org/1999/xlink" viewBox="0 0 100 100"><defs><style>.cls-1{fill:url(#Dégradé_sans_nom_4);}.cls-2{fill:#fff;}</style><radialGradient id="Dégradé_sans_nom_4" cx="97.3" cy="1.78" r="102.66" gradientUnits="userSpaceOnUse"><stop offset="0" stop-color="#1f6a83"/><stop offset="0.31" stop-color="#4285a3"/><stop offset="1" stop-color="#8dbde6"/></radialGradient></defs><circle class="cls-1" cx="50" cy="50" r="50"/><path class="cls-2" d="M83.11,20.6a2.44,2.44,0,1,0-2.39,2.49,2.44,2.44,0,0,0,2.39-2.49"/><path class="cls-2" d="M67.45,26.51A8.45,8.45,0,0,0,60.58,30c-1.41,2-1.86,5.55-.56,8.65L62.08,37c-1.54-2.68-1.23-5.07,0-6.79A6.62,6.62,0,0,1,73.75,32l1.44-.44a8.42,8.42,0,0,0-7.74-5.07h0"/><path class="cls-2" d="M59,38.72a21.54,21.54,0,1,1-35,25.08L18.5,67.69A27.5,27.5,0,1,0,62.94,35.86Z"/><path class="cls-2" d="M72.32,31.76A11.16,11.16,0,0,1,53.37,43.55l-2.16,1.34a14.25,14.25,0,0,0,24.05-15Z"/><path class="cls-2" d="M18.08,51.73c-1.84,5.86-1.61,10.55,1.17,15.52l4.06-3c-2.82-4.11-3-8.15-1.43-13.27a16.82,16.82,0,0,1,29.51-5l3.11-2.22a21.45,21.45,0,0,0-36.42,7.95"/></svg>