<svg id="Calque_1" data-name="Calque 1" xmlns="http://www.w3.org/2000/svg" viewBox="0 0 100 100"><defs><style>.cls-1{fill:#161615;}.cls-2{fill:#a3a3a3;}</style></defs><g id="Groupe_2070" data-name="Groupe 2070"><g id="Groupe_2067" data-name="Groupe 2067"><g id="Groupe_2066" data-name="Groupe 2066"><path id="Tracé_1268" data-name="Tracé 1268" class="cls-1" d="M60.79,2.51h33.4v8.86h-23v9.92H90.4v8.5H71.19V48H60.79Z"/></g></g><path id="Tracé_1273" data-name="Tracé 1273" class="cls-1" d="M89.36,79.45A13.25,13.25,0,0,0,98,66.66a14.19,14.19,0,0,0-4.35-10.58c-2.75-2.82-6.79-4.23-12.23-4.23H60.79V77.24L71.37,87.83v-7H79l9.3,16.52H100ZM80.74,72.6H71.37V60.73h9.37c4.28,0,6.79,2,6.79,5.93s-2.45,5.94-6.8,5.94Z"/><path id="Tracé_1274" data-name="Tracé 1274" class="cls-1" d="M31.2,48H51.41V39.09h-21V2.51H20V36.86Z"/><path id="Tracé_1275" data-name="Tracé 1275" class="cls-2" d="M0,27V97.49H70.45Z"/></g></svg>