<svg id="Calque_1" data-name="Calque 1" xmlns="http://www.w3.org/2000/svg" viewBox="0 0 100 100"><defs><style>.cls-1{fill:none;}.cls-1,.cls-2{stroke:#000;stroke-width:0.75px;}.cls-3{fill:#fff;}</style></defs><circle class="cls-1" cx="50" cy="50" r="50"/><circle class="cls-1" cx="50" cy="50" r="41.25"/><path class="cls-2" d="M59.74,27.14V53.53c0,2.45,0,4.87.07,7.27h13l4.57-9.47,2-.3L78.63,64.2l-.23.24q-8.25-.1-16.12-.1H54q-5,0-9.21.1l-.17-1.67,4.14-1.23a1.12,1.12,0,0,0,.9-1c0-.89,0-1.88,0-3s0-2.32,0-3.66V27.27c0-1.11,0-2.12,0-3s0-1.74,0-2.5a1.08,1.08,0,0,0-.8-1.1l-4.14-1.3-.1-1.7q4.31.14,9.94.13,5.81,0,10.08-.13l.17,1.7-4.14,1.23a1.06,1.06,0,0,0-.87,1c0,.81,0,2-.05,3.42S59.74,27.18,59.74,27.14Z"/><path class="cls-3" d="M58,27.14V53.53q0,3.67.07,7.27h13l4.57-9.47,2-.3L76.85,64.2l-.24.24q-8.23-.1-16.11-.1H52.22q-5,0-9.21.1l-.16-1.67L47,61.54a1.1,1.1,0,0,0,.9-1c0-.89,0-1.88,0-3s0-2.32,0-3.66V27.27c0-1.11,0-2.12,0-3s0-1.74,0-2.5a1.08,1.08,0,0,0-.8-1.1l-4.14-1.3-.09-1.7c2.86.09,6.18.13,9.94.13s7.23,0,10.07-.13l.17,1.7-4.14,1.23a1,1,0,0,0-.86,1c0,.81,0,2-.05,3.42S58,27.18,58,27.14Z"/><path class="cls-1" d="M58,27.14V53.53q0,3.67.07,7.27h13l4.57-9.47,2-.3L76.85,64.2l-.24.24q-8.23-.1-16.11-.1H52.22q-5,0-9.21.1l-.16-1.67L47,61.54a1.1,1.1,0,0,0,.9-1c0-.89,0-1.88,0-3s0-2.32,0-3.66V27.27c0-1.11,0-2.12,0-3s0-1.74,0-2.5a1.08,1.08,0,0,0-.8-1.1l-4.14-1.3-.09-1.7c2.86.09,6.18.13,9.94.13s7.23,0,10.07-.13l.17,1.7-4.14,1.23a1,1,0,0,0-.86,1c0,.81,0,2-.05,3.42S58,27.18,58,27.14Z"/><line class="cls-1" x1="47.93" y1="22.45" x2="57.98" y2="22.45"/><line class="cls-1" x1="47.93" y1="27.1" x2="57.98" y2="27.1"/><line class="cls-1" x1="47.93" y1="31.75" x2="57.98" y2="31.75"/><line class="cls-1" x1="47.93" y1="36.39" x2="57.98" y2="36.39"/><line class="cls-1" x1="47.93" y1="41.04" x2="57.98" y2="41.04"/><line class="cls-1" x1="47.93" y1="45.69" x2="57.98" y2="45.69"/><line class="cls-1" x1="47.93" y1="50.34" x2="57.98" y2="50.34"/><line class="cls-1" x1="47.93" y1="54.99" x2="57.98" y2="54.99"/><line class="cls-1" x1="47.93" y1="59.64" x2="57.98" y2="59.64"/><line class="cls-1" x1="71.07" y1="59.64" x2="77.23" y2="59.64"/><path class="cls-2" d="M41.44,41.07V67.46c0,2.45,0,4.87.06,7.28h13l4.57-9.48,2-.3-.83,13.18-.23.23q-8.25-.09-16.12-.1H35.7c-3.32,0-6.39,0-9.21.1l-.17-1.66,4.14-1.24a1.11,1.11,0,0,0,.9-1c0-.89,0-1.89.05-3s0-2.32,0-3.65V41.2c0-1.11,0-2.12,0-3s0-1.75-.05-2.5a1.09,1.09,0,0,0-.8-1.11l-4.14-1.3-.1-1.7q4.31.14,9.94.14c3.88,0,7.23-.05,10.08-.14l.17,1.7L42.37,34.5a1.05,1.05,0,0,0-.87,1c0,.8,0,1.94,0,3.42S41.44,41.12,41.44,41.07Z"/><path class="cls-3" d="M39.65,41.07V67.46c0,2.45,0,4.87.07,7.28h13l4.58-9.48,2-.3-.83,13.18-.24.23q-8.23-.09-16.11-.1H33.91c-3.31,0-6.38,0-9.21.1l-.16-1.66,4.13-1.24a1.11,1.11,0,0,0,.91-1c0-.89,0-1.89,0-3s0-2.32,0-3.65V41.2c0-1.11,0-2.12,0-3s0-1.75,0-2.5a1.1,1.1,0,0,0-.81-1.11l-4.13-1.3-.1-1.7q4.31.14,9.94.14,5.81,0,10.08-.14l.16,1.7L40.58,34.5a1,1,0,0,0-.86,1c0,.8,0,1.94,0,3.42S39.65,41.12,39.65,41.07Z"/><path class="cls-1" d="M39.65,41.07V67.46c0,2.45,0,4.87.07,7.28h13l4.58-9.48,2-.3-.83,13.18-.24.23q-8.23-.09-16.11-.1H33.91c-3.31,0-6.38,0-9.21.1l-.16-1.66,4.13-1.24a1.11,1.11,0,0,0,.91-1c0-.89,0-1.89,0-3s0-2.32,0-3.65V41.2c0-1.11,0-2.12,0-3s0-1.75,0-2.5a1.1,1.1,0,0,0-.81-1.11l-4.13-1.3-.1-1.7q4.31.14,9.94.14,5.81,0,10.08-.14l.16,1.7L40.58,34.5a1,1,0,0,0-.86,1c0,.8,0,1.94,0,3.42S39.65,41.12,39.65,41.07Z"/><line class="cls-1" x1="29.62" y1="36.38" x2="39.67" y2="36.38"/><line class="cls-1" x1="29.62" y1="41.03" x2="39.67" y2="41.03"/><line class="cls-1" x1="29.62" y1="45.68" x2="39.67" y2="45.68"/><line class="cls-1" x1="29.62" y1="50.33" x2="39.67" y2="50.33"/><line class="cls-1" x1="29.62" y1="54.98" x2="39.67" y2="54.98"/><line class="cls-1" x1="29.62" y1="59.63" x2="39.67" y2="59.63"/><line class="cls-1" x1="29.62" y1="64.27" x2="39.67" y2="64.27"/><line class="cls-1" x1="29.62" y1="68.92" x2="39.67" y2="68.92"/><line class="cls-1" x1="29.62" y1="73.57" x2="39.67" y2="73.57"/><line class="cls-1" x1="52.76" y1="73.57" x2="58.92" y2="73.57"/></svg>