<svg id="Calque_1" data-name="Calque 1" xmlns="http://www.w3.org/2000/svg" viewBox="0 0 100 100"><defs><style>.cls-1{fill:#ff661f;opacity:0.94;}.cls-2{fill:#fff;fill-opacity:0.94;}.cls-3{fill:#00a888;}.cls-3,.cls-4{fill-rule:evenodd;}.cls-4{fill:#231f20;}</style></defs><circle class="cls-1" cx="50" cy="50" r="50"/><circle class="cls-2" cx="50" cy="50" r="38.68"/><g id="g12"><path id="path28" class="cls-3" d="M22.21,54.61A1.57,1.57,0,0,0,20.8,54a1.73,1.73,0,0,0-1.64,1.91,1.69,1.69,0,0,0,1.66,1.86,1.65,1.65,0,0,0,1.39-.59v2a4.21,4.21,0,0,1-1.42.32,3.22,3.22,0,0,1-2.31-1,3.5,3.5,0,0,1-1-2.59,3.84,3.84,0,0,1,.91-2.52,3.19,3.19,0,0,1,2.35-1.12,3.45,3.45,0,0,1,1.47.35v2"/><path id="path34" class="cls-3" d="M30.26,52.43h1.49l2.74,4.21h0V52.43H36v6.89H34.5L31.77,55.1h0v4.22H30.26V52.43"/><path id="path40" class="cls-3" d="M44.27,59.32h-1.6V54H41.49V52.43h4V54H44.27v5.37"/><path id="path46" class="cls-3" d="M47.78,53.8h.16c.52,0,1.11.11,1.11.86s-.59.86-1.11.86h-.16Zm1.52,2.7a1.84,1.84,0,0,0,1.36-2,2,2,0,0,0-2.15-2.12h-2.4v6.89h1.6V56.67h0l1.52,2.65h2L49.3,56.5"/><path id="path52" class="cls-3" d="M61.7,54.61A1.56,1.56,0,0,0,60.3,54a1.74,1.74,0,0,0-1.65,1.91,1.69,1.69,0,0,0,1.67,1.86,1.63,1.63,0,0,0,1.38-.59v2a4.15,4.15,0,0,1-1.41.32,3.26,3.26,0,0,1-2.32-1,3.53,3.53,0,0,1-1-2.59,3.84,3.84,0,0,1,.91-2.52,3.16,3.16,0,0,1,2.35-1.12,3.41,3.41,0,0,1,1.46.35v2"/><path id="path58" class="cls-3" d="M65.08,59.32h-1.6V54H62.29V52.43h4V54H65.08v5.37"/><path id="path64" class="cls-3" d="M66.91,59.32h1.6V52.43h-1.6Z"/><path id="path70" class="cls-3" d="M76.77,52.43h1.49L81,56.64h0V52.43H82.5v6.89H81L78.27,55.1h0v4.22H76.77V52.43"/><path id="path76" class="cls-3" d="M39,56.64l-.46-.11c-.23-.05-.74-.24-.74-.24a2,2,0,0,1-1.19-1.81,2.22,2.22,0,0,1,4.43,0H39.45v-.21a.59.59,0,0,0-.59-.61.61.61,0,0,0-.61.61.63.63,0,0,0,.16.42,1.09,1.09,0,0,0,.52.29,5.31,5.31,0,0,1,1,.24h0a2.06,2.06,0,0,1,1.26,1.9,2.3,2.3,0,1,1-4.6,0h1.6a1.08,1.08,0,0,0,0,.18.71.71,0,0,0,.71.71.7.7,0,0,0,.7-.71.69.69,0,0,0-.53-.68"/><path id="path82" class="cls-3" d="M56.4,57a2.54,2.54,0,1,1-5.08,0V52.45h1.74V57a.8.8,0,0,0,.8.8.79.79,0,0,0,.79-.8V52.45H56.4V57"/><path id="path88" class="cls-3" d="M24.26,55.9a1.87,1.87,0,1,1,1.86,1.87A1.87,1.87,0,0,1,24.26,55.9Zm1.86,3.65a3.66,3.66,0,1,0-3.64-3.65,3.64,3.64,0,0,0,3.64,3.65"/><path id="path94" class="cls-3" d="M70.76,55.9a1.87,1.87,0,1,1,1.87,1.87A1.87,1.87,0,0,1,70.76,55.9Zm1.87,3.65A3.66,3.66,0,1,0,69,55.9a3.64,3.64,0,0,0,3.65,3.65"/><path id="path100" class="cls-4" d="M27.06,45.74a2.7,2.7,0,1,1,2.7,2.71A2.71,2.71,0,0,1,27.06,45.74ZM29.76,51a5.28,5.28,0,1,0-5.26-5.28A5.26,5.26,0,0,0,29.76,51"/><path id="path102" class="cls-4" d="M60.68,45.18a5.12,5.12,0,0,1,0,.56,5.25,5.25,0,1,1-.27-1.68H57.58a2.72,2.72,0,1,0,.05,3.26h-2.8V45.15l5.85,0"/><path id="path104" class="cls-4" d="M42.89,47.24a3.74,3.74,0,1,1-7.47,0V40.6H38v6.64a1.19,1.19,0,0,0,1.19,1.19,1.16,1.16,0,0,0,1.15-1.19V40.6h2.58v6.64"/><path id="path106" class="cls-4" d="M68.59,47.24a3.74,3.74,0,1,1-7.47,0V40.6h2.54v6.64a1.19,1.19,0,0,0,1.19,1.19A1.17,1.17,0,0,0,66,47.24V40.6h2.58v6.64"/><path id="path108" class="cls-4" d="M75.07,40.6V43h-3v1.6h3v2.36h-3v1.59h3v2.38H69.53V40.6h5.54"/><path id="path110" class="cls-4" d="M79.39,46.87l-.67-.15a11.12,11.12,0,0,1-1.09-.35,2.91,2.91,0,0,1-1.75-2.67,3.26,3.26,0,0,1,6.51,0H80v-.3a.87.87,0,0,0-.87-.9.9.9,0,0,0-.9.9,1,1,0,0,0,.24.61,1.65,1.65,0,0,0,.77.43,7.59,7.59,0,0,1,1.4.36h0a3,3,0,0,1,1.87,2.79,3.39,3.39,0,1,1-6.77,0h2.36a.82.82,0,0,0,0,.27,1,1,0,1,0,1.29-1"/><path id="path112" class="cls-4" d="M17.68,40.6V50.89h3.8a3,3,0,0,0,1.42-5.61,2.56,2.56,0,0,0-1.42-4.69Zm2.55,7.92v-2h1a1,1,0,0,1,0,1.95Zm1-5.58a.76.76,0,1,1,0,1.52h-1V43h1"/><path id="path114" class="cls-4" d="M48.31,50.9V47.13l3-6.53H48.61L47,44.06l-1.6-3.46H42.77l3,6.53V50.9h2.56"/></g></svg>