<svg id="Calque_1" data-name="Calque 1" xmlns="http://www.w3.org/2000/svg" viewBox="0 0 100 100"><defs><style>.cls-1{fill:#225898;}.cls-2{fill:#fff;}</style></defs><circle class="cls-1" cx="50" cy="50" r="50"/><polygon class="cls-2" points="48.6 32.43 46.56 23.65 51.02 17.03 48.85 7.23 54.33 17.67 50.51 24.67 50.51 32.43 48.6 32.43"/><polygon class="cls-2" points="50.64 67.57 52.67 76.35 48.22 82.97 50.51 92.77 44.91 82.33 48.85 75.33 48.73 67.57 50.64 67.57"/><polygon class="cls-2" points="32.43 51.02 23.65 53.05 17.03 48.6 7.23 50.89 17.67 45.29 24.67 49.24 32.43 49.11 32.43 51.02"/><polygon class="cls-2" points="67.57 48.98 76.35 47.07 82.97 51.4 92.77 49.24 82.33 54.71 75.33 50.89 67.57 50.89 67.57 48.98"/><polygon class="cls-2" points="36.89 38.67 29.25 33.71 27.72 26.07 19.2 20.6 30.52 24.03 32.69 31.8 38.29 37.27 36.89 38.67"/><polygon class="cls-2" points="63.11 61.97 70.75 66.8 72.4 74.57 80.8 79.91 69.47 76.48 67.31 68.71 61.84 63.37 63.11 61.97"/><polygon class="cls-2" points="38.67 63.11 33.71 70.75 26.07 72.4 20.6 80.8 24.03 69.47 31.8 67.31 37.27 61.84 38.67 63.11"/><polygon class="cls-2" points="61.97 36.89 66.8 29.25 74.57 27.72 79.91 19.2 76.48 30.52 68.71 32.69 63.24 38.29 61.97 36.89"/><path class="cls-2" d="M40.2,44.53a3.09,3.09,0,0,1-1-.13,3.39,3.39,0,0,0-1.15,0v.38a1.26,1.26,0,0,1,1,.38,6.05,6.05,0,0,1,.38,1.53c0,.76.13,2,.13,4v3.43a22.19,22.19,0,0,1-.13,3.31,4.52,4.52,0,0,1-.38,1.4,1,1,0,0,1-.89.38v.51a3.33,3.33,0,0,0,1-.12c.51,0,.76-.13,1-.13a3.12,3.12,0,0,1,1,.13,7.33,7.33,0,0,1,1,.12v-.51A2.41,2.41,0,0,0,41.6,59a.93.93,0,0,1-.38-.38,2,2,0,0,1-.26-1c0-.51-.12-1.15-.12-2V47.45a5.26,5.26,0,0,1,.63-2.67,1.07,1.07,0,0,1,.77-.25V44.4a4.31,4.31,0,0,0-1.15.13Z"/><path class="cls-2" d="M52.67,44.53a4.28,4.28,0,0,1-1.14-.13,2.6,2.6,0,0,0-1,0v.38a2.39,2.39,0,0,1,1,.26c.25.12.38.5.38,1s.13,1.28.13,2.17v2.67H49.62V39.43h3.05V38H49.62V35.62h-1.4V38H45.16v1.4h3.06V50.89H45.8V48.6a11.5,11.5,0,0,1,.13-2.42A5.15,5.15,0,0,1,46.31,45a1.14,1.14,0,0,1,.89-.39V44.4a3.12,3.12,0,0,0-1,.13c-.51,0-.89.12-1.14.12a3.33,3.33,0,0,1-1-.12,3.85,3.85,0,0,0-1.15-.13v.38a1.8,1.8,0,0,1,.89.26c.26.12.38.38.38.89a8.82,8.82,0,0,1,.13,2v7.39a12.08,12.08,0,0,1-.13,2.41,5.26,5.26,0,0,1-.38,1.15,2.11,2.11,0,0,1-.89.51v.25A4.65,4.65,0,0,0,44,59.55a4,4,0,0,1,1-.13,4.28,4.28,0,0,1,1.14.13,7.33,7.33,0,0,1,1,.12v-.51c-.51-.12-.89-.25-1-.63a2.93,2.93,0,0,1-.38-1.66V52h6.11v3.31a8.24,8.24,0,0,1-.13,2,2.43,2.43,0,0,1-.38,1.15,1.33,1.33,0,0,1-1,.51v.63a4.65,4.65,0,0,0,1.15-.12,5.11,5.11,0,0,1,2.29,0c.51,0,.89.12,1.14.12v-.51a5.52,5.52,0,0,1-.89-.38.77.77,0,0,1-.38-.76,4.25,4.25,0,0,1-.13-1.4v-9a5.14,5.14,0,0,1,.13-1.65A1.77,1.77,0,0,1,54,45c.12-.26.51-.39,1-.39V44.4a4.28,4.28,0,0,0-1.14.13Z"/><path class="cls-2" d="M61.84,54.2a7.66,7.66,0,0,0-.64-1.53c-.25-.38-.51-.63-.76-1a11.41,11.41,0,0,0-1.15-1c-.38-.39-.76-.64-1-.89a2.55,2.55,0,0,1-.51-.64,2.94,2.94,0,0,1-.5-1.78,3.33,3.33,0,0,1,.38-1.53,1.64,1.64,0,0,1,1.4-.64,1.62,1.62,0,0,1,1.65.89,4.79,4.79,0,0,1,.51,2.55h.38V47.2a19.28,19.28,0,0,1,.13-2.8c-.13,0-.64-.13-1.27-.26A7.79,7.79,0,0,0,58.91,44a2.48,2.48,0,0,0-1.65.51,5.31,5.31,0,0,0-1,1.4,5.14,5.14,0,0,0-.38,2,4.81,4.81,0,0,0,.76,2.8,5,5,0,0,0,.76.89l1,1a9,9,0,0,1,1,.89c.25.26.38.51.64.77a3.07,3.07,0,0,1,.51,1.91A4,4,0,0,1,60.18,58a1.39,1.39,0,0,1-1.27.76A3,3,0,0,1,57,58a3.67,3.67,0,0,1-1-2.93h-.25v.51A27.23,27.23,0,0,0,55.86,59a5.64,5.64,0,0,0,3,.89,3.15,3.15,0,0,0,1.91-.64,3.26,3.26,0,0,0,1-1.53A8.3,8.3,0,0,0,62.09,56C62,55.35,62,54.71,61.84,54.2Z"/></svg>