<svg id="Calque_1" data-name="Calque 1" xmlns="http://www.w3.org/2000/svg" xmlns:xlink="http://www.w3.org/1999/xlink" viewBox="0 0 100 100"><defs><style>.cls-1{fill:none;}.cls-2{fill:#fff;}.cls-3{fill:#000091;}.cls-3,.cls-7{fill-rule:evenodd;}.cls-4{fill:#e1000f;}.cls-5{fill:gray;}.cls-6{fill:#1e1e1e;}.cls-8{clip-path:url(#clip-path);}</style><clipPath id="clip-path"><circle class="cls-1" cx="-100" cy="50" r="50"/></clipPath></defs><rect class="cls-2" x="1.57" y="6.84" width="42.95" height="15.62"/><path class="cls-3" d="M19.32,20.61l.51-.53a9.26,9.26,0,0,1,1-1,2.6,2.6,0,0,1,.32-.26.33.33,0,0,0,0-.06.09.09,0,0,1,0-.06,1,1,0,0,0-.2.12.69.69,0,0,1-.19.12s-.06,0,0-.06l.32-.24h0s0,0,0-.06a1.25,1.25,0,0,0-.94.44h0S20,19,20,19h0a2.55,2.55,0,0,0-.64.36h0a3,3,0,0,1-.57.35v-.06a.85.85,0,0,0-.22.09,1.92,1.92,0,0,1-.31.11,2.25,2.25,0,0,1-.57,0h-.17c-.36.05-.72.11-1.07.19h0a2.87,2.87,0,0,0-.55.22h0a.21.21,0,0,1,0,.06.55.55,0,0,1-.2.17,1.82,1.82,0,0,0-.35.27l-.14.12H15l-.14.14h0l-.33.32h-.09l0,0c0-.05,0-.09.07-.13l.09-.14.13-.18s0,0,0,0a.05.05,0,0,0,0,0,3.08,3.08,0,0,1,.5-.37s-.05,0,0,0l0-.05,0,0v0l0,0h0a1.1,1.1,0,0,0-.14.09l-.06.07h0c0,.06-.09.13-.17.13h-.06v0h0v0l0,0h0l0-.05h0l0,0v0h0v0a0,0,0,0,0,0,0,0,0,0,0,0,0,0,.7.7,0,0,1,.2-.18h0l.24-.13h0l.1-.06,0,0h0a2,2,0,0,0-.47.23l0,0a.09.09,0,0,1-.07,0s0,0,0,0L15,20a.24.24,0,0,0,.09-.06s.06,0,.06,0a4.09,4.09,0,0,1,2-.67,7,7,0,0,0,1.3-.27l.27-.18a.85.85,0,0,0,.21-.14,1.3,1.3,0,0,1,.23-.15,1.35,1.35,0,0,0,.5-.68.06.06,0,0,0,0-.06,4.42,4.42,0,0,1-1.3,1,3.24,3.24,0,0,1-1.4.3c-.18,0-.36,0-.54.06,0-.06.08-.06.14-.06a.2.2,0,0,1,.08-.15l0,0h.09l0,0s0,0,0,0,.15,0,.12,0-.12,0-.19,0a.26.26,0,0,1-.23,0,.19.19,0,0,0,.05-.1.09.09,0,0,1,0-.08h.12a.24.24,0,0,1,.06-.11c.26-.16.51-.3.76-.43l.51-.28-.09,0a.16.16,0,0,1-.15,0s0,0,0-.05,0,0,0,0a3,3,0,0,0,.52-.21l.4-.17-.12,0a.23.23,0,0,1-.21,0l.05,0a.19.19,0,0,1,.13,0v-.09s0,0,.06,0a.07.07,0,0,1-.06,0s.05,0,.08-.05a.14.14,0,0,0,.1,0s-.09,0-.09,0a.57.57,0,0,1,.38-.18s0,0-.07,0-.05,0-.05,0,0,0,.06,0H19a.08.08,0,0,1,0-.1h0v0a1,1,0,0,0,.2-.47,2.17,2.17,0,0,1,.07-.24s-.06,0-.06,0a2.36,2.36,0,0,1-1.17.55h-.19a.62.62,0,0,1-.5,0,.76.76,0,0,1-.17-.13L17,16.16a4.17,4.17,0,0,0-.74-.35A6.47,6.47,0,0,0,14,15.49a2,2,0,0,1,.66-.21c.12,0,.25,0,.37-.09l.22-.07a3.71,3.71,0,0,1,1.28-.22.44.44,0,0,0-.2,0h-.09a3.21,3.21,0,0,0-1,.12l-.26.05c-.15,0-.29.08-.43.12s-.28.09-.43.12a.59.59,0,0,0-.17.1.39.39,0,0,1-.3.1v-.08a1.7,1.7,0,0,1,1.12-.74,4.49,4.49,0,0,1,1.32,0h0l.25,0a8.47,8.47,0,0,1,1.12.2c.08,0,.12.08.17.14s.07.12.12.13a.78.78,0,0,0,.22,0,.61.61,0,0,1,.31.09v-.06a.17.17,0,0,1,0-.12.2.2,0,0,1,.22,0,.25.25,0,0,0,.17,0c.16-.1,0-.25-.15-.41a1.12,1.12,0,0,1-.18-.21l0-.06.2.19a2,2,0,0,0,.51.4c.15.06.5.15.44,0a2.87,2.87,0,0,0-.45-.62l-.23-.26V14a.06.06,0,0,1-.06,0,0,0,0,0,1,0,0v-.12c-.08,0-.09-.09-.11-.16a.42.42,0,0,0,0-.1.65.65,0,0,1-.06-.29.63.63,0,0,0,0-.24,4.21,4.21,0,0,1-.12-.51c0-.19-.07-.38-.11-.56h0a8.41,8.41,0,0,1-.15-.85A1.89,1.89,0,0,1,18.54,10a3.79,3.79,0,0,0,.2-.34,2.53,2.53,0,0,1,.82-.94,2.67,2.67,0,0,1,.56-.94h0A2.68,2.68,0,0,1,21,7.13a7.47,7.47,0,0,1,.79-.29H1.57V22.45H15.91a6.76,6.76,0,0,1,1.25-.67l.66-.31.15-.08h0A6.32,6.32,0,0,0,19.32,20.61Zm-4.68-2.14c0-.11.12-.14.23-.17l.12,0h0a.25.25,0,0,1,.18,0,.21.21,0,0,0,.11.08.1.1,0,0,1,.09,0,.49.49,0,0,1-.36.13.6.6,0,0,0-.26.05h0C14.68,18.5,14.61,18.51,14.64,18.47Zm-3.46-2.19a9.07,9.07,0,0,1-.94,1.51.09.09,0,0,0,0,.06,10,10,0,0,1,2.27-2s0,0,0,0,0,.07,0,0c.31-.07.44-.33.58-.58a1.14,1.14,0,0,1,.1-.19,2,2,0,0,1,.53-.51,2.64,2.64,0,0,0,.41-.34.07.07,0,0,1,0,.08.09.09,0,0,0,.09,0l.16-.07a.35.35,0,0,0,.2-.1,1.13,1.13,0,0,0-.77,0,5.64,5.64,0,0,0-1.65,1.3A4,4,0,0,1,11.18,16.28ZM12.63,16a.28.28,0,0,1-.12.12s-.06,0-.06,0a.37.37,0,0,1,.24-.27s0,0,0,.06,0,0-.05.06S12.64,16,12.63,16Zm1.42,4.43s0,0,0,0l.08-.09c0-.06-.13,0-.16,0l-.06.07-.12.12-.1.09-.12.11c0,.05.11.07.14,0l.11-.11h.05A.69.69,0,0,0,14.05,20.45Zm-.5-.37,0,0a3.28,3.28,0,0,1-.31.2l-.28.14-.1.05h0s0,0-.05,0a1.3,1.3,0,0,0-.29.22l-.05,0,0,.05h0l-.06.07,0,0s-.07,0-.07,0h0l-.05,0,0,0h0L12,21a1,1,0,0,0-.18.18h0v0H11.7l0-.05h0l.09-.1h0l0,0,0-.06h0l.1-.13h0l0-.06,0-.06h0l0-.07h0v-.05h0v-.05a.61.61,0,0,1,.12-.16h0l-.06.05-.05,0s-.09,0,0,0l.07-.06.15-.16h0l.08-.06h0l.07-.07h0a1.57,1.57,0,0,1,.67-.29,1.76,1.76,0,0,0,.46-.14.61.61,0,0,1,.27,0,.69.69,0,0,0,.2,0,.42.42,0,0,1,.27.06l-.59.35-.16.11ZM14,18h.24s-.06,0-.09.05,0,0,0,0,.27.06.39,0a.49.49,0,0,1,.29-.06s0-.05,0-.08a1,1,0,0,0,.24,0,8.37,8.37,0,0,0,2-.62,6.24,6.24,0,0,0-2.25-.95h0l-.4-.12.09,0c.06,0,.11,0,.17,0a.49.49,0,0,0-.25-.08.55.55,0,0,1-.22-.06h0s.08,0,.1,0a1.45,1.45,0,0,0-.47-.13h0l-.24-.05a.3.3,0,0,0,.24-.3s-.06,0-.09,0a1.6,1.6,0,0,0-.74.89.68.68,0,0,0,.42.06h.23a.55.55,0,0,1-.26.1l-.09,0c-.1,0-.18.09-.15.14s0,0,.06.05a.46.46,0,0,0-.18.1.28.28,0,0,0,.25,0h.1s0,.05.06.07h0l0,0a.51.51,0,0,0-.29.27.82.82,0,0,1-.17.2h0a.74.74,0,0,0-.13.12v.09l-.3.25h0a2.26,2.26,0,0,0-.55.52s0,0,0,.06a.48.48,0,0,1-.11.09.27.27,0,0,0-.1.11s0,.06,0,.06a2.16,2.16,0,0,0,.5-.26,3.18,3.18,0,0,1,.44-.24,1.51,1.51,0,0,0,.34-.14,2.28,2.28,0,0,1,.28-.13,1.05,1.05,0,0,0,.24-.06h0l.24-.05S14,18,14,18Zm1.37,2.61h0a.68.68,0,0,0,.12-.12h0A.69.69,0,0,0,15.41,20.57Zm5.75-1.94-.06.05S21.16,18.67,21.16,18.63Z"/><path class="cls-4" d="M44.51,6.84H27.71a.46.46,0,0,1,.16.07l.43.22a1.44,1.44,0,0,1,.56.48c.06.09.15.26.09.38s-.09.38-.24.44a1.08,1.08,0,0,1-.62.06,1,1,0,0,1-.35-.06,2.48,2.48,0,0,1,1.15.8c0,.06.15.09.26.09s0,.06,0,.09-.11.09-.09.17h.09c.15-.05.12-.35.33-.26a.34.34,0,0,1,.12.44,2.6,2.6,0,0,1-.36.3.23.23,0,0,0,0,.2.82.82,0,0,1,.15.36c.09.2.12.44.21.65a4.32,4.32,0,0,1,.2,1.32c0,.24-.12.45,0,.68a2.3,2.3,0,0,0,.33.62,4.45,4.45,0,0,1,.32.48c.18.29.5.59.36.94s-.42.18-.62.29,0,.39.06.54-.18.44-.39.53c.06.09.18.06.21.11s.18.24.09.39-.48.26-.3.53a.78.78,0,0,1,0,.65.73.73,0,0,1-.53.44,1.06,1.06,0,0,1-.56,0,.48.48,0,0,0-.18-.06,12.85,12.85,0,0,0-1.5-.2,1.91,1.91,0,0,0-.41.11,2.74,2.74,0,0,0-.36.32h0l-.06.07,0,.05,0,0a1.85,1.85,0,0,0-.23.34l0,0,0,0a2.87,2.87,0,0,0-.22.55,1.78,1.78,0,0,0,0,1.39s1,.33,1.63.62a6.53,6.53,0,0,1,.7.35H44.51Z"/><path class="cls-5" d="M28.71,12.53c.12,0,.3,0,.3.09-.06.24-.42.3-.59.53h-.09c-.09.06-.06.21-.15.21a.39.39,0,0,0-.26,0,.48.48,0,0,0,.44.17.16.16,0,0,1,.09.12l.06,0s0,0,0,0v.12c-.08.12-.23.06-.35.09a1.31,1.31,0,0,0,.68,0c.18-.06,0-.35.12-.5-.06,0,0-.09-.06-.09s.12-.15.18-.18A.2.2,0,0,0,29.3,13c0-.06-.12-.08-.09-.14s.33-.3.27-.48-.27-.08-.41-.14a1,1,0,0,0-.51,0,2.57,2.57,0,0,0-.44.11,2,2,0,0,0-.56.3,3.69,3.69,0,0,1,.65-.18A2.09,2.09,0,0,1,28.71,12.53Z"/><path class="cls-6" d="M1.61,42H3.83V34.13l2.44,4.09H7.83l2.43-4.09V42h2.22V31H9.72L7.05,35.63,4.38,31H1.61Zm14.16,0H18V31H15.77Zm5.5,0h2.22v-7.9L28.38,42h2.84V31H29v7.9L24.12,31H21.27Zm13.24,0h2.22V31H34.51ZM39,40.46a4.91,4.91,0,0,0,4,1.83A3.35,3.35,0,0,0,46.72,39c0-3.75-5-3.19-5-5.17a1.18,1.18,0,0,1,1.29-1.15A2.9,2.9,0,0,1,45.24,34l1.62-1.47A4.84,4.84,0,0,0,43,30.73a3.29,3.29,0,0,0-3.53,3.17c0,3.7,5,3.15,5,5.17a1.23,1.23,0,0,1-1.4,1.25A3.13,3.13,0,0,1,40.65,39Zm9-7.4h3.37V42h2.22V33.06H57V31h-9Zm13.35-3h2L61.69,28H59.41ZM59.23,42H65.6V40.13H61.44V37.32H65V35.48H61.44v-2.6H65.6V31H59.23Zm9.18,0h2.22V37.55h1.14L74.69,42H77.3l-3.43-4.84a2.92,2.92,0,0,0,1.77-2.82c0-2-1.48-3.27-3.89-3.27H68.41Zm3.47-9.09a1.42,1.42,0,1,1,0,2.83H70.63V32.88ZM78.93,42h6.38V40.13H81.15V37.32h3.53V35.48H81.15v-2.6h4.16V31H78.93ZM1.61,58.37h4.3a5.48,5.48,0,1,0,0-10.93H1.61Zm4.33-8.92a3.46,3.46,0,1,1,0,6.91H3.83V49.45Zm8.15,8.92h6.37V56.53H16.31V53.72h3.53V51.87H16.31V49.28h4.15V47.44H14.09Zm8.2-1.51a4.91,4.91,0,0,0,4,1.82A3.34,3.34,0,0,0,30,55.39c0-3.75-5-3.19-5-5.17a1.18,1.18,0,0,1,1.29-1.16,2.91,2.91,0,0,1,2.19,1.38L30.11,49a4.82,4.82,0,0,0-3.82-1.84,3.28,3.28,0,0,0-3.53,3.17c0,3.7,5,3.15,5,5.17a1.23,1.23,0,0,1-1.4,1.25,3.13,3.13,0,0,1-2.42-1.35Zm13.15,1.51H37.8l1.05-2.84h4.37l1.05,2.84h2.36L42.49,47.44H39.58Zm4.1-4.73L41,49.53l1.49,4.11Zm9,4.73h2.22V54h1.14l2.92,4.42h2.6L54,53.53a2.94,2.94,0,0,0,1.77-2.83c0-2-1.48-3.26-3.89-3.26H48.55ZM52,49.28a1.42,1.42,0,1,1,0,2.83H50.77V49.28Zm7,9.09h2.22V50.53l2.44,4.09h1.56l2.44-4.09v7.84h2.21V47.44H67.18L64.51,52l-2.67-4.59H59.07ZM77.4,46.5l2-2.11H77.15L75.38,46.5ZM73.23,58.37H79.6V56.53H75.45V53.72H79V51.87H75.45V49.28H79.6V47.44H73.23Zm9.18,0h6.37V56.53H84.63V53.72h3.53V51.87H84.63V49.28h4.15V47.44H82.41Zm8.2-1.51a4.91,4.91,0,0,0,4,1.82,3.34,3.34,0,0,0,3.64-3.29c0-3.75-5-3.19-5-5.17a1.18,1.18,0,0,1,1.29-1.16,2.91,2.91,0,0,1,2.19,1.38L98.43,49a4.82,4.82,0,0,0-3.82-1.84,3.29,3.29,0,0,0-3.53,3.17c0,3.7,5,3.15,5,5.17a1.23,1.23,0,0,1-1.4,1.25,3.13,3.13,0,0,1-2.42-1.35Z"/><path class="cls-7" d="M42.14,86.25l-1.45,1.32h-.38l.86-1.51h1Zm-1,5.13h-.31a1.93,1.93,0,0,1-1.25.85c-.44,0-.66-.27-.66-.85a4.06,4.06,0,0,1,.08-.7l2.55-.84c.5-1.19-.1-1.7-.8-1.7-1.2,0-2.58,2.1-2.58,3.79,0,.8.38,1.23,1,1.23S40.5,92.48,41.09,91.38Zm-.87-2.56c.34,0,.64.27.48.88l-1.58.42C39.37,89.37,39.84,88.82,40.22,88.82Zm-5,0h.84l-1.34,3.69a.43.43,0,0,0,.38.62,3,3,0,0,0,2.53-2h-.24a3.09,3.09,0,0,1-1.65,1.11L37,88.85h1.27l.15-.53H37.19L37.66,87h-.49l-.87,1.32-1,.14Zm-1.17-.7a.37.37,0,0,1,.3.53l-1.52,3.67a1.76,1.76,0,0,0,1-.78h.25a2.33,2.33,0,0,1-1.87,1.59.36.36,0,0,1-.3-.53L33.38,89a1.84,1.84,0,0,0-1,.78h-.24A2.4,2.4,0,0,1,34.08,88.15Zm.44-.94a.58.58,0,0,0,.58-.57.59.59,0,0,0-.58-.58.57.57,0,0,0-.58.58A.59.59,0,0,0,34.52,87.21Zm-6.83,3.05c.35-.75.22-1.09,0-1.09s-.4.2-.62.57h-.24c.36-.79.83-1.59,1.35-1.59s.59.44.59.92v.69l.21-.24h0c.66-.78,1.16-1.37,1.74-1.37a.63.63,0,0,1,.69.7,2,2,0,0,1-.25.89l-1.3,2.61a1.76,1.76,0,0,0,1-.78h.24a2.38,2.38,0,0,1-2,1.59.42.42,0,0,1-.37-.62l1.5-2.89c.17-.33.2-.55-.07-.55a3.42,3.42,0,0,0-1.65,1.14l-1,2.6c-.11.26-.21.32-.46.32-.41,0-.61-.26-.43-.68Zm-1-1c.17-.59.08-1.12-.38-1.12s-.74.37-1.29,1.52l0,.08v-.68c0-.49-.16-.92-.6-.92s-1,.79-1.34,1.59h.23c.25-.36.49-.58.67-.58s.35.34,0,1.09l-1,2.22c-.19.42,0,.69.42.69.25,0,.36-.06.47-.33l1-2.59c.28-.34.53-.64.84-1Zm-4.94.44c.16-.61-.14-.88-.48-.88s-.84.55-1.09,1.3Zm.39,1.68h-.31a1.93,1.93,0,0,1-1.25.85c-.44,0-.65-.27-.65-.85a4.05,4.05,0,0,1,.07-.7l2.55-.84c.5-1.19-.09-1.7-.8-1.7-1.2,0-2.57,2.1-2.57,3.79,0,.8.37,1.23,1,1.23S21.54,92.48,22.13,91.38Zm-5-2.53h-.85v-.39l1.05-.14L18.21,87h.49l-.47,1.32h1.23l-.15.53H18l-1.23,3.46a3.09,3.09,0,0,0,1.65-1.11h.24a3,3,0,0,1-2.53,2,.43.43,0,0,1-.38-.62Zm-5.31,2.86c0-1.14,1.26-2.67,2-2.67a1.46,1.46,0,0,1,.44.06l-.73,2c-.42.52-1.08,1.14-1.39,1.14S11.83,92.06,11.83,91.71Zm3.48-3.81.39,0-1.36,3.13c-.33.75-.19,1.09,0,1.09s.42-.22.67-.58h.24c-.36.8-.83,1.59-1.35,1.59s-.7-.46-.62-1.31l0-.29-.09.11c-.55.79-1.06,1.49-1.58,1.49a.64.64,0,0,1-.69-.7c0-1.81,2-4.12,3.84-4.12h.08Zm-3.58,1.36c.17-.59.08-1.12-.37-1.12s-.74.37-1.29,1.52l0,.08v-.68c0-.49-.16-.92-.59-.92s-1,.79-1.35,1.59h.24c.25-.36.48-.58.65-.58s.35.34,0,1.09L8,92.48c-.18.42,0,.68.43.68a.41.41,0,0,0,.46-.32l1-2.6c.28-.34.53-.64.84-1h1ZM5.3,92.7,5.2,93H1.57l.09-.3c1.12-.2,1.31-.3,1.78-1.56l1-2.72c.45-1.26.35-1.36-.63-1.56l.09-.28H8.66l-.29,1.51H8c0-.9-.09-1.14-.95-1.14H6.86c-.84,0-1,.13-1.19.78L5,89.54H6c.65,0,.9-.4,1.2-.94h.34l-.81,2.22H6.38c.07-.67.07-.93-.53-.93h-1l-.45,1.24c-.49,1.3-.35,1.33.81,1.55Z"/><path class="cls-7" d="M8.39,74.3l-1.45,1H6.56l.86-1.25h1Zm10.15,7.32,2.33-6.18-.08-.09-1.61.18v.19l.31.24c.27.2.2.4,0,1l0,.1-1.78,4.75a.43.43,0,0,0,.38.63,2.31,2.31,0,0,0,1.87-1.6h-.23A2.07,2.07,0,0,1,18.54,81.62Zm10.67-4.76,1.45-1.33v-.18h-1l-.86,1.51Zm.09,3.8h.31c-.57,1.1-1.29,1.78-2,1.78s-1-.44-1-1.24c0-1.68,1.38-3.79,2.58-3.79.69,0,1.3.51.8,1.7L27.47,80a4.07,4.07,0,0,0-.07.71c0,.57.21.84.65.84A2,2,0,0,0,29.3,80.66ZM29.22,79c.16-.59-.14-.86-.48-.86s-.83.55-1.09,1.28Zm-4.59-.83h-.84v-.39l1.05-.14.87-1.33h.48l-.46,1.33H27l-.16.53H25.54L24.3,81.59A3,3,0,0,0,26,80.48h.23a3,3,0,0,1-2.53,2,.42.42,0,0,1-.37-.62ZM22.91,78c.1-.34-.12-.53-.31-.53a2.41,2.41,0,0,0-2,1.6h.24a1.76,1.76,0,0,1,1-.78l-1.41,3.67a.37.37,0,0,0,.3.53,2.33,2.33,0,0,0,1.87-1.6h-.23a1.76,1.76,0,0,1-1,.78Zm.72-2a.58.58,0,1,1-1.15,0,.57.57,0,0,1,.57-.57A.58.58,0,0,1,23.63,75.92Zm-7.88,2.41c-.71,0-2,1.53-2,2.67,0,.34.11.5.3.5s.95-.63,1.37-1.14l.73-2A1.24,1.24,0,0,0,15.75,78.33Zm1.9-1.11-.39,0-.44.44h-.07c-1.86,0-3.85,2.31-3.85,4.12a.64.64,0,0,0,.69.7c.52,0,1-.71,1.59-1.49l.08-.12,0,.3c-.08.84.19,1.31.63,1.31s1-.79,1.34-1.59H17c-.25.36-.48.58-.67.58s-.33-.35,0-1.1ZM9.78,82.28c-.67.27-1.14.58-1.14,1.06s.42.64,1.3.64c1.17,0,1.81-.34,1.81-.79,0-.21-.27-.3-1-.54A7.16,7.16,0,0,1,9.78,82.28Zm.78-1.92c-.31,0-.42-.27-.42-.55,0-.9.44-2,1.14-2,.31,0,.42.27.42.55C11.69,79.25,11.25,80.36,10.56,80.36Zm.59,1.47c.86.26,1.39.47,1.39,1.06,0,.76-1.4,1.67-3.1,1.65-1,0-1.83-.26-1.83-.9s.56-1.11,1.94-1.52a.54.54,0,0,1-.27-.5c0-.37.34-.67.94-1a1.07,1.07,0,0,1-1-1.15,2.13,2.13,0,0,1,2.09-2.11,1.23,1.23,0,0,1,.68.18h1.41l-.16.54h-.82a1.64,1.64,0,0,1,.07.46,2.13,2.13,0,0,1-2,2.11.78.78,0,0,0-.47.6c0,.22.26.29.82.46h0ZM6.2,79.16c.61,0,.63.26.54.93h.34l.81-2.21H7.55c-.3.53-.55.93-1.21.93H5L5.66,77c.23-.66.34-.79,1.18-.79h.6c.86,0,1,.24,1,1.15h.34L9,75.83H3.92l-.09.28c1,.2,1.08.3.63,1.56l-1,2.74C3,81.67,2.78,81.76,1.64,82l-.07.29H7.22l1-1.6H7.84a3.37,3.37,0,0,1-2.59,1.23c-1.41,0-1.38-.07-1-1.23,0-.08.06-.15.09-.24l.47-1.25H6.2Z"/><path class="cls-7" d="M10.87,65.77a.58.58,0,1,0,0-1.15.57.57,0,0,0-.57.58A.56.56,0,0,0,10.87,65.77Zm1.36,5.94c1.22,0,3.27-2.24,3.27-4,0-.75-.19-1-.72-1s-1.27.7-1.88,1.55l1.32-3.52-.08-.11-1.61.19V65l.31.23c.27.21.19.43,0,1.05l0,.06-1.42,3.72a4,4,0,0,0-.27.78C11.09,71.29,11.69,71.71,12.23,71.71ZM29,66.15l1.45-1.33v-.19h-1l-.86,1.52Zm.09,3.79h.31c-.59,1.11-1.31,1.78-2,1.77s-1-.42-1-1.22c0-1.69,1.38-3.8,2.58-3.8.69,0,1.3.52.8,1.71l-2.55.84a4.06,4.06,0,0,0-.08.7c0,.58.22.85.66.85A1.93,1.93,0,0,0,29.13,69.94Zm-.08-1.68c.16-.6-.14-.86-.48-.86s-.85.54-1.1,1.28Zm-4.61-.83H23.6V67l1-.14.87-1.33H26l-.47,1.33h1.23l-.15.53H25.35l-1.23,3.45a3,3,0,0,0,1.65-1.11H26a3,3,0,0,1-2.53,2,.43.43,0,0,1-.38-.63Zm-1.28.4c.18-.59.08-1.12-.37-1.12s-.74.37-1.29,1.53l0,.08v-.69c0-.48-.15-.92-.59-.92s-1,.8-1.34,1.59h.23c.25-.36.48-.57.66-.57s.34.34,0,1.09l-1,2.22c-.19.42,0,.68.42.68a.42.42,0,0,0,.47-.32l1-2.6c.28-.34.53-.64.84-1Zm-4.95.43c.16-.6-.14-.86-.48-.86s-.83.54-1.09,1.28Zm.39,1.68h-.31a1.93,1.93,0,0,1-1.25.85c-.43,0-.65-.27-.65-.85a4.05,4.05,0,0,1,.07-.7L19,68.4c.5-1.19-.09-1.71-.8-1.71-1.2,0-2.57,2.11-2.57,3.8,0,.8.37,1.22,1,1.22S18,71.05,18.6,69.94Zm-6.56.6c0,.2.36.43.61.43,1,0,2-1.82,2-2.84,0-.34-.18-.48-.41-.48s-1.06.56-1.5,1.09l-.41,1.09A4.76,4.76,0,0,0,12,70.54Zm-1.63-3.83c.18,0,.4.19.31.53l-1.5,3.67a1.83,1.83,0,0,0,1-.78h.23a2.33,2.33,0,0,1-1.87,1.59.36.36,0,0,1-.31-.53l1.4-3.67a1.83,1.83,0,0,0-1,.78H8.44A2.4,2.4,0,0,1,10.41,66.71ZM3.92,65.09H7.28l-.09.29c-1.14.21-1.33.3-1.8,1.56l-1,2.75c-.48,1.31-.36,1.47.5,1.47a3.33,3.33,0,0,0,2.37-1.44l.13-.15h.39l-1.11,2H1.57l.09-.29C2.78,71.05,3,71,3.44,69.69l1-2.76c.45-1.27.35-1.36-.63-1.56Z"/><g class="cls-8"><rect class="cls-2" x="-226.64" y="0.01" width="244.33" height="88.85"/><path class="cls-4" d="M17.69,0H-77.88A4.41,4.41,0,0,1-77,.43l2.41,1.29a8,8,0,0,1,3.2,2.68c.33.5.84,1.51.5,2.18-.33.84-.5,2.19-1.34,2.52a6.18,6.18,0,0,1-3.53.34,8.06,8.06,0,0,1-2-.34c2.51,1,4.86,2.19,6.54,4.54.17.33.84.5,1.52.5.16,0,.16.33.16.5-.33.34-.67.51-.5,1h.5c.84-.34.67-2,1.85-1.51A1.89,1.89,0,0,1-67,16.66a17.89,17.89,0,0,1-2,1.68,1.41,1.41,0,0,0,0,1.17,5.12,5.12,0,0,1,.83,2c.51,1.17.68,2.52,1.18,3.69a23.65,23.65,0,0,1,1.17,7.56c0,1.34-.67,2.51-.16,3.86a13.91,13.91,0,0,0,1.84,3.52,25.38,25.38,0,0,1,1.85,2.69c1,1.68,2.85,3.36,2,5.37-.51,1.18-2.35,1-3.53,1.68-1,.84-.17,2.18.34,3,.84,1.51-1,2.52-2.19,3,.34.51,1,.34,1.18.68.17.84,1,1.34.5,2.18-.67,1-2.68,1.51-1.68,3,.68,1.18.24,2.48-.16,3.69a4.1,4.1,0,0,1-3,2.52A6.71,6.71,0,0,1-72,68.2a2.42,2.42,0,0,0-1-.34c-2.86-.33-5.71-1.17-8.56-1.17a9.57,9.57,0,0,0-2.35.67,15.19,15.19,0,0,0-2,1.8l0,0-.36.41c-.08.08-.15.17-.22.25l-.14.18A15.68,15.68,0,0,0-88,72l-.08.13c0,.08-.08.16-.13.24a16.24,16.24,0,0,0-1.27,3.08c-1.14,3.84-.64,7.14.16,7.94.22.22,5.54,1.86,9.25,3.51a32.7,32.7,0,0,1,4,2H17.69Z"/></g></svg>