<svg id="Calque_1" data-name="Calque 1" xmlns="http://www.w3.org/2000/svg" viewBox="0 0 100 100"><defs><style>.cls-1{fill:#e30613;}.cls-2{fill:#fff;}</style></defs><circle class="cls-1" cx="50" cy="50" r="50"/><g id="svg_16" data-name="svg 16"><path id="svg_4" data-name="svg 4" class="cls-2" d="M61.91,64.44v-.2c0-.1,0-.1-.1-.2s-.1-.1-.1-.2A1.29,1.29,0,0,0,60,63.53a1.33,1.33,0,0,0-.5.72c-1.43,2.64-3,5.29-4.38,7.94.1-2.45.2-4.79.3-7.23v-.3a1.27,1.27,0,0,0-2.34-.72l-4.58,8.25c.11-2.44.21-4.78.31-7.23a1.29,1.29,0,0,0-2.14-.91c-2,2.44-4.07,5-6.21,7.33a55.08,55.08,0,0,1-4.17,4.37,10,10,0,0,1-.41-3.46c2.54-1.42,5.7-3.15,6.72-6,.4-1.22.2-3.36-1.22-3.77-2.75-.81-5.3,3.26-6.52,5.19a8.91,8.91,0,0,0-1.12,2.45c-1.63,1.42-3.15,2.85-4.78,4.28,1.73-8.66,1.93-10.19,3.66-18.84v-.51H30.15l-4.48,22.5a1.28,1.28,0,0,0,2.14,1.22l5.59-5a26.47,26.47,0,0,0,.92,4.48,1.24,1.24,0,0,0,1.83.71c2.24-1.42,4.07-3.76,5.9-5.7,1.43-1.52,2.75-3,4.07-4.68l-.3,8.86a1.26,1.26,0,0,0,2.34.61l4.58-8.25-.31,7.63a1.26,1.26,0,0,0,2.34.61c1.63-3,3.36-6.1,5.09-9.16l.61,8.55c.1,1.63,2.65,1.63,2.55,0-.51-4.37-.82-8.65-1.12-13h0ZM40,65.16a3.18,3.18,0,0,1-.5,1A8.42,8.42,0,0,1,37,68.62,9.26,9.26,0,0,1,40,65.16ZM84.88,37a5.69,5.69,0,0,0-.71-.31l-.41,2.54c2.75,1.74,0,7.13-1.32,9.16a6.89,6.89,0,0,1-1.94,1.94,3.61,3.61,0,0,1-.91.4c-.82.1-.51-.3-.31-.81.82-2.75,2-6.42,3.06-9.16H79.59c-2.14,3.76-4.79,8.24-9.06,9.77-1,.4-.82-.11-.82-1a9.39,9.39,0,0,1,1-3.77,15.63,15.63,0,0,1,2.13-3.56c.72-.92,1.94-2.55,3.26-2.55l.41-2.44h-.21C73,36.88,70,41.46,68.79,44.1a21.93,21.93,0,0,0-1,2.85c-.1,0-.1.1-.2.1l-1.43,1.63c-.2-3.26-.51-6.42-.71-9.67a1.25,1.25,0,0,0-2.34-.61c-1.53,2.74-3.06,5.49-4.48,8.24.1-2.44.2-4.78.3-7.22.1-1.33-1.73-1.63-2.34-.61-2.14,3.35-4.37,6.51-6.72,9.77V43.39a.63.63,0,0,0-.1-.41H47.31a67.18,67.18,0,0,1-4.68,6.31,15,15,0,0,1-1.33,1.32,6.91,6.91,0,0,1,.2-1.52,15.17,15.17,0,0,1,2.55-5.7c.81-1.22,2.54-3.77,4.27-3.67h.1v-.1l.41-2.34a.83.83,0,0,0-.71-.31c-2.85-.3-4.38,2.65-6.11,4.38-2.13,2.24-4.17,4.68-6.31,7a61.39,61.39,0,0,0,1.63-8.45A1.27,1.27,0,0,0,35.7,38.7a31.69,31.69,0,0,0-3.87,1.53c.51-1.43.61-2.85-.3-3.67a1.37,1.37,0,0,0-2,.21,9.74,9.74,0,0,0-1.32,3H22.49c1.83-7.74,3.66-15.37,5.49-23.1.11-.51.31-1.12.41-1.63v-.31H25.85c-1.93,8.35-4,16.8-5.9,25.14H13.23l-.61,2.55h6.61L14,64.67l-.71,3.25H16c1.83-7.93,4.27-18.11,6-25.44h6.21a.37.37,0,0,0,.1.3c-.2.41-.41.92-.61,1.33-1.12,2.34-3.36,6.61-4.89,9.16h2.75c1.83-3.06,3.87-7.13,5.09-9.77a29.25,29.25,0,0,0,4.07-1.73c-.51,3.46-1.83,6.82-1.94,10.38a1.26,1.26,0,0,0,2.14.91c1.32-1.42,2.54-2.85,3.87-4.27a11.4,11.4,0,0,0-.21,1.83c0,2.55,1.83,3.46,3.87,1.94a25.58,25.58,0,0,0,4.68-5.19c0,1.63,0,3.25.1,4.88a1.25,1.25,0,0,0,2.34.61c2.14-3,4.38-6,6.52-9-.1,2.64-.21,5.39-.31,8a1.26,1.26,0,0,0,2.34.61c1.73-3.05,3.36-6.11,5.09-9.16l.61,8.55c.1,1,1.43,1.83,2.14.92a16.35,16.35,0,0,1,1.32-1.53c.31,1.43,1.32,2.44,3.46,1.93,2.44-.5,4.38-2.44,6.11-4.27-.31,1.12-.72,2.34,0,3.26,1.73,2.34,5,.61,6.51-1,3-3.26,6.51-11.4,1.53-14.15ZM29.82,38.21ZM40.71,50.73C40.4,50.93,40.51,50.83,40.71,50.73Zm44.2,11.78A4.09,4.09,0,0,0,84,62.2l-.41,2.45c3,1.62.1,7.12-1.32,9.16a7,7,0,0,1-1.94,1.93,2.49,2.49,0,0,1-.92.4c-.81.1-.51-.3-.3-.81.91-2.85,1.63-5.6,3-9.16v-.11h-4c-.41,0-.82.11-1.22.11h-.31a1.26,1.26,0,0,0-1.63-1.84,24.75,24.75,0,0,1-3.77,1.83,1.25,1.25,0,0,0,.2,2.44c-.81,1-1.63,1.94-2.44,2.85-.51.61-1.12,1.12-1.63,1.73,1.53-7.84,1.67-9.07,3.19-16.91v-.51H68C66.21,65,65.87,67.69,64,76.85c-.21,1.12,1.22,2.24,2.13,1.22l4.58-4.89a53.6,53.6,0,0,0,3.87-4.58h4l-1.53,4.58c-.3,1.32-1.22,3-.3,4.27,1.73,2.34,5,.61,6.51-1,3-3.05,6.61-11.19,1.63-13.94Z"/></g></svg>