<svg id="Calque_1" data-name="Calque 1" xmlns="http://www.w3.org/2000/svg" viewBox="0 0 100 100"><defs><style>.cls-1{fill:#c00;}.cls-2{fill:#fff;}</style></defs><circle class="cls-1" cx="50" cy="50" r="50"/><path class="cls-2" d="M68.85,33.6H52l-4.71-4.41a6.24,6.24,0,0,0-4.42-1.84H31.35A6.25,6.25,0,0,0,25.1,33.6V64.85a6.25,6.25,0,0,0,6.25,6.25h37.5a6.25,6.25,0,0,0,6.25-6.25v-25A6.21,6.21,0,0,0,68.85,33.6Zm1.56,31.25a1.56,1.56,0,0,1-1.56,1.57H31.35a1.56,1.56,0,0,1-1.56-1.57V33.6A1.56,1.56,0,0,1,31.35,32H42.82a1.55,1.55,0,0,1,1.11.46l6.17,5.79H68.85a1.56,1.56,0,0,1,1.56,1.56Z"/></svg>