<svg id="Calque_1" data-name="Calque 1" xmlns="http://www.w3.org/2000/svg" viewBox="0 0 100 100"><defs><style>.cls-1{fill:#4ad3f4;}.cls-1,.cls-2,.cls-3,.cls-4{opacity:0.8;}.cls-2{fill:#00a6e0;}.cls-3{fill:#e5df00;}.cls-4{fill:#00396d;}</style></defs><path class="cls-1" d="M47,97.92,14.41,75.58a5.27,5.27,0,0,1,0-8.7L47,44.54a5.27,5.27,0,0,1,6,0L85.59,66.88a5.27,5.27,0,0,1,0,8.7L53,97.92A5.27,5.27,0,0,1,47,97.92Z"/><path class="cls-2" d="M47,83.76,14.41,61.42a5.26,5.26,0,0,1,0-8.69L47,30.39a5.27,5.27,0,0,1,6,0L85.59,52.73a5.26,5.26,0,0,1,0,8.69L53,83.76A5.27,5.27,0,0,1,47,83.76Z"/><path class="cls-3" d="M47,69.61,14.41,47.27a5.26,5.26,0,0,1,0-8.69L47,16.24a5.27,5.27,0,0,1,6,0L85.59,38.58a5.26,5.26,0,0,1,0,8.69L53,69.61A5.27,5.27,0,0,1,47,69.61Z"/><path class="cls-4" d="M47,55.46,14.41,33.12a5.27,5.27,0,0,1,0-8.7L47,2.08a5.27,5.27,0,0,1,6,0L85.59,24.42a5.27,5.27,0,0,1,0,8.7L53,55.46A5.27,5.27,0,0,1,47,55.46Z"/></svg>