<svg id="Calque_1" data-name="Calque 1" xmlns="http://www.w3.org/2000/svg" xmlns:xlink="http://www.w3.org/1999/xlink" viewBox="0 0 100 100"><defs><style>.cls-1{fill:none;}.cls-2{fill:#b7995d;}.cls-3{fill:#fff;}.cls-4{clip-path:url(#clip-path);}.cls-5{fill:url(#Dégradé_sans_nom_4);}</style><clipPath id="clip-path"><path class="cls-1" d="M188.12,33a32.53,32.53,0,1,1-52.88,37.88L127,76.72a41.53,41.53,0,1,0,67.1-48.07Z"/></clipPath><radialGradient id="Dégradé_sans_nom_4" cx="-209.41" cy="-463.03" r="0.86" gradientTransform="translate(-17598.02 -39305.41) rotate(-180) scale(85.04)" gradientUnits="userSpaceOnUse"><stop offset="0" stop-color="#1f6a83"/><stop offset="0.31" stop-color="#4285a3"/><stop offset="1" stop-color="#8dbde6"/></radialGradient></defs><circle class="cls-2" cx="50" cy="50" r="50"/><path class="cls-3" d="M51.65,80.37a33.51,33.51,0,0,1-12.46-2.26,29.09,29.09,0,0,1-16.42-16A30.62,30.62,0,0,1,20.42,50a30.71,30.71,0,0,1,2.35-12.12,29,29,0,0,1,6.57-9.64,29.92,29.92,0,0,1,9.94-6.36,33.69,33.69,0,0,1,12.45-2.25A34.07,34.07,0,0,1,63.94,21.8a24.51,24.51,0,0,1,9.64,6.53l-4,4a22.17,22.17,0,0,0-8.11-5.42,28.24,28.24,0,0,0-19.54.17,23.93,23.93,0,0,0-8,5.2,25,25,0,0,0,0,35.41,24,24,0,0,0,8,5.21,26.83,26.83,0,0,0,10,1.83A26.35,26.35,0,0,0,61.46,73a22.64,22.64,0,0,0,8.11-5.45l4,4a24.92,24.92,0,0,1-9.64,6.57A33.7,33.7,0,0,1,51.65,80.37Z"/><g class="cls-4"><rect class="cls-5" x="115.19" y="12.56" width="104.12" height="106.47" transform="translate(28.15 179.61) rotate(-60.76)"/></g></svg>