<svg id="Calque_1" data-name="Calque 1" xmlns="http://www.w3.org/2000/svg" viewBox="0 0 100 100"><defs><style>.cls-1{fill:#001f33;}.cls-2{fill:#fff;}</style></defs><circle class="cls-1" cx="50" cy="49.6" r="50"/><path id="Path_357" data-name="Path 357" class="cls-2" d="M57.12,28.56H29.43a2.89,2.89,0,0,0-.23,5.77H58.68c5.56,0,8.37,1.3,8.37,3.86v4c0,2.7-2.76,4.07-8.2,4.07H39.91l-11.33,0a2.3,2.3,0,0,0-2.36,2.31h0V68.31a2.36,2.36,0,0,0,2.36,2.32h29c10.74,0,16.18-3.69,16.18-10.95V57.32a8.45,8.45,0,0,0-5.42-8.4,8.25,8.25,0,0,0,5.42-8V38.52c0-6.6-5.58-10-16.65-10M67.05,60c0,3.27-2.76,4.85-8.46,4.85H31V52.12H58.82c5.47,0,8.26,1.3,8.26,3.85Z"/></svg>