<svg id="Calque_1" data-name="Calque 1" xmlns="http://www.w3.org/2000/svg" viewBox="0 0 100 100"><defs><style>.cls-1{fill:#0084d5;}.cls-2,.cls-3{fill:#fff;}.cls-2{fill-rule:evenodd;}</style></defs><circle class="cls-1" cx="50" cy="50" r="50"/><path class="cls-2" d="M19.69,34c-4-3.77-2.45-10.18-1.37-12.81.66-1.66,1.55-1.07,2.48,1.89.59,1.82,2.88,7.77,2.29,9S21.13,35.37,19.69,34ZM35.56,60.87c-.4.63-.07,1.26.78,1.59s3.22-.07,3.85,1.89,0,7.25-.55,9.18.25,2.48.77,2.88c2.15,1.6,6.63,3.52,12.81-.07C57.44,73.9,68.73,61.8,69.65,59.46c.78-1.88.15-1.55-1.26-1.07-4.25,1.48-12,3.92-19.8,11.77-1.4,1.41-2.44,1.63-3.7,1.41-2.81-.45-3.85-8.74-2.63-12.11.45-1.22.19-1.66-.33-1.88-.37-.19-.74-.37-2,0a8.69,8.69,0,0,0-4.33,3.29Z"/><path class="cls-3" d="M49.67,29.93c-.63-1.22-4.41-2.37-6.22-2.85-1.37-.37-.59,1.44-.15,2.63.81,2.18,4.29,5.18,6.44,4.59,1.18-.37.7-2.93-.07-4.37Zm-2.6,9.66c-1.66-.59-6.73-1-8.43-1.22s-.45,1.26,0,2.66,5.48,4.3,7.4,2.85C47.07,43.07,48.44,40.07,47.07,39.59Zm21.17.15a45.55,45.55,0,0,1,5-.6c.89-.07.74,1.19.07,1.82C72,42.18,70.24,43.66,69,42.62c-.67-.55-1.56-2.59-.75-2.88ZM59.4,28.6a1.35,1.35,0,0,0,1.41-1.19c.44-2.66-1.41-6.73-2.15-8.21C58,18,55.88,17.05,55.85,17.83c-.19,3.85-1.37,6-.19,8.66C56.22,27.75,59.4,28.6,59.4,28.6Z"/><path class="cls-2" d="M20.32,66.5c1-.34,2.48-1.08,1.88-1.41-4.81-2.26-7.07-9.66-6-19.39.15-1-1,.18-1.45,1.33C14.5,47.77,6.66,70.42,20.32,66.5Zm54-9.89c1.56,1.78,5.48,7.85,5.63,10.15.18,3-3,4.25-4.59,5S55.74,77.86,52.52,81c-2.23,2.18.07,1.37,1.14,1.22,4.85-.89,19.21-.19,27.28-2.89S88,69.75,87.23,67.42C86.38,64.87,81.9,57.28,75.05,55c-2.4-.81-1.77.37-.7,1.59Z"/><path class="cls-3" d="M54.74,50.84c-.82-.78-1.82-1.81-1.34-2,1-.44,4.67-1.81,5.7-2.85,2.41-2.44,3-10.55-3.62-12.21-.82-.22-.49-1.19,1.33-1.26,9.18-.56,9.77,9.1,8.55,12.95-.89,2.85-3,3.48-2.26,5.11s4.11,1.78,5.07,2.55c.41.34-.44.67-1.63.86-1.14,0-8.14.37-11.8-3.15Z"/><path class="cls-2" d="M33.75,81.12c-.55-.26-1.37-2.19-2.22-3.41-.63-.85-2.07-2.85-2.7-3.89-1.22-2-7.89-24.31-8.37-27.12-.44-2.45-.77-5.19,0-6.41.85-1.4,5.51-3.7,5.88-3,1.07,2,3.85,26.53,8.55,43.34.22.74-.74.7-1.11.52ZM65,32.11a3,3,0,0,1,1.59-2.18,7.13,7.13,0,0,1,2.85-.56c1.18,0,2,.26,1.66.86s-2,3.51-3.81,4.07C65.84,34.74,65.06,32.52,65,32.11Z"/></svg>