<svg id="Calque_1" data-name="Calque 1" xmlns="http://www.w3.org/2000/svg" xmlns:xlink="http://www.w3.org/1999/xlink" viewBox="0 0 100 100"><defs><style>.cls-1{fill:none;}.cls-2{fill:#996a46;}.cls-3{clip-path:url(#clip-path);}.cls-4{fill:url(#Dégradé_sans_nom_5);}.cls-5{clip-path:url(#clip-path-2);}.cls-6{fill:url(#Dégradé_sans_nom_4);}.cls-7{clip-path:url(#clip-path-3);}.cls-8{fill:url(#Dégradé_sans_nom_4-2);}.cls-9{clip-path:url(#clip-path-4);}.cls-10{fill:url(#Dégradé_sans_nom_5-2);}</style><clipPath id="clip-path"><path class="cls-1" d="M76.35,14.52A12.75,12.75,0,0,0,66,19.83c-2.14,3-2.82,8.38-.85,13.06l3.12-2.49c-2.33-4.06-1.86-7.66,0-10.25a10,10,0,0,1,17.61,2.7L88,22.18a12.75,12.75,0,0,0-11.68-7.66h0"/></clipPath><radialGradient id="Dégradé_sans_nom_5" cx="-347.97" cy="-489.35" r="0.86" gradientTransform="translate(-12470.11 -17637.54) rotate(180) scale(36.09)" gradientUnits="userSpaceOnUse"><stop offset="0" stop-color="#443420"/><stop offset="0.15" stop-color="#614b31"/><stop offset="0.42" stop-color="#90704c"/><stop offset="0.66" stop-color="#b28b60"/><stop offset="0.86" stop-color="#c69b6c"/><stop offset="0.99" stop-color="#cea170"/><stop offset="1" stop-color="#cea170"/></radialGradient><clipPath id="clip-path-2"><path class="cls-1" d="M63.52,33A32.53,32.53,0,1,1,10.64,70.84L2.43,76.72A41.53,41.53,0,1,0,69.54,28.65Z"/></clipPath><radialGradient id="Dégradé_sans_nom_4" cx="-334.01" cy="-463.03" r="0.86" gradientTransform="translate(-28319.14 -39305.41) rotate(-180) scale(85.04)" gradientUnits="userSpaceOnUse"><stop offset="0" stop-color="#1f6a83"/><stop offset="0.31" stop-color="#4285a3"/><stop offset="1" stop-color="#8dbde6"/></radialGradient><clipPath id="clip-path-3"><path class="cls-1" d="M83.7,22.46a16.85,16.85,0,0,1-28.61,17.8l-3.26,2a21.52,21.52,0,0,0,36.32-22.6Z"/></clipPath><radialGradient id="Dégradé_sans_nom_4-2" cx="-325.68" cy="-406.76" r="0.86" gradientTransform="matrix(0, 24.79, -24.79, 0, -10022.21, 8094.54)" xlink:href="#Dégradé_sans_nom_4"/><clipPath id="clip-path-4"><path class="cls-1" d="M1.79,52.61C-1,61.46-.64,68.55,3.56,76.05L9.7,71.6c-4.26-6.21-4.59-12.31-2.17-20A25.38,25.38,0,0,1,52.1,44l4.69-3.37a32.4,32.4,0,0,0-55,12"/></clipPath><radialGradient id="Dégradé_sans_nom_5-2" cx="-366.81" cy="-445.81" r="0.86" gradientTransform="translate(20842.18 25366.36) scale(56.82)" xlink:href="#Dégradé_sans_nom_5"/></defs><path class="cls-2" d="M100,5.6a3.68,3.68,0,1,0-3.6,3.76A3.68,3.68,0,0,0,100,5.6"/><g class="cls-3"><rect class="cls-4" x="62.49" y="13.59" width="26.22" height="20.23" transform="translate(-1.6 5.9) rotate(-4.42)"/></g><g class="cls-5"><rect class="cls-6" x="-9.41" y="12.56" width="104.12" height="106.47" transform="translate(-35.6 70.88) rotate(-60.76)"/></g><g class="cls-7"><rect class="cls-8" x="50.02" y="13.15" width="42.81" height="46.7" transform="translate(17.27 95.67) rotate(-74.6)"/></g><g class="cls-9"><rect class="cls-10" x="-1.17" y="19.57" width="58.15" height="66.8" transform="translate(-30.04 68.03) rotate(-76.79)"/></g></svg>