<svg id="Calque_1" data-name="Calque 1" xmlns="http://www.w3.org/2000/svg" viewBox="0 0 100 100"><defs><style>.cls-1{fill:#4570b4;}.cls-2{fill:#6db6dd;}.cls-3{fill:#2e3e85;}</style></defs><rect class="cls-1" x="68.32" y="80.5" width="18.32" height="18.32"/><path class="cls-2" d="M79.25,25.41c-4.88-4.73-11.82-7.09-20.39-7.09H50V36.63h7.24c4.58,0,7.24,1,9.6,3.4,2.07,2.22,1.92,11.23,1.92,11.23H48.38c-13.15,0-23.2,11.37-23.2,24.37A24.51,24.51,0,0,0,37.3,96.75a19.69,19.69,0,0,0,3.54,1.92A21.47,21.47,0,0,0,48.52,100h1a23.63,23.63,0,0,0,11.67-3,34.87,34.87,0,0,0,6.94-4.73V82.87a28.35,28.35,0,0,1-11.08,4.57c-.3,0-.59.15-.89.15h-.88A7.13,7.13,0,0,1,52.07,87a12.65,12.65,0,0,1-8.72-12.11C43.35,68,48.08,62,56.5,62h30V46.53c.15-9.31-2.36-16.4-7.23-21.12"/><rect class="cls-2" x="13.37" width="18.32" height="18.32"/><polyline class="cls-3" points="50 36.63 31.68 36.63 31.68 18.32 50 18.32"/><rect class="cls-3" x="68.32" y="62.19" width="18.32" height="18.32"/></svg>