<svg id="Calque_1" data-name="Calque 1" xmlns="http://www.w3.org/2000/svg" viewBox="0 0 100 100"><defs><style>.cls-1{fill:#3d3d3b;}.cls-2{fill:#fdd832;}.cls-3{fill:#fff;}</style></defs><circle class="cls-1" cx="50" cy="50" r="50"/><polygon class="cls-2" points="68.17 71.96 59.92 80.2 59.92 54.47 36.97 54.47 45.22 46.22 68.17 46.22 68.17 71.96"/><polygon class="cls-3" points="83.37 56.76 75.12 65.18 75.12 38.1 53.34 38.1 61.59 29.85 83.37 29.85 83.37 56.76"/><path class="cls-2" d="M24.88,50.29A24,24,0,0,1,46.64,26.46V18.21a32.17,32.17,0,0,0-4.46,63.58l7.61-7.61c-.33,0-.64,0-1,0A24,24,0,0,1,24.88,50.29Z"/></svg>