<svg id="Calque_1" data-name="Calque 1" xmlns="http://www.w3.org/2000/svg" viewBox="0 0 100 100"><defs><style>.cls-1{fill:#1c3b72;}.cls-2{fill:#fff;}.cls-3{fill:#00b1e1;}</style></defs><circle class="cls-1" cx="50" cy="50" r="50"/><polygon class="cls-2" points="28.51 77.99 28.51 43.18 38.69 43.18 62.43 66.91 62.43 43.18 71.83 43.18 71.83 77.99 61.64 77.99 37.8 54.15 37.8 77.99 28.51 77.99"/><path class="cls-3" d="M81.84,34.88C81,34.08,70,22,49.29,22c-16.37,0-25.43,6.38-25.43,6.38l.27.41c-2.69,1.82-5.24,3.92-5.24,3.92l.22.29s1.73-1.36,2.62-1.92l.4.49c-1.09.79-3.49,2.77-3.49,2.77l.32.3-2,1.9.24.3s2.43-2.11,3.44-2.92l.32.34s1.93-1.55,3.17-2.37l.52.61c-1.14.78-4.33,3.4-4.33,3.4l.34.34s1.43-1.25,2.14-1.76l.52.57a31.33,31.33,0,0,1,5.61-3.79l.33.35-1.11.78.25.33s6-5.28,20.91-5.28A41.29,41.29,0,0,1,78.16,38.79c.67.58,2.45,2,4.1.35S82.65,35.68,81.84,34.88Z"/></svg>