<svg id="Calque_1" data-name="Calque 1" xmlns="http://www.w3.org/2000/svg" viewBox="0 0 100 100"><defs><style>.cls-1{fill:#017ed9;}.cls-2{fill:#fff;}</style></defs><circle class="cls-1" cx="50" cy="50" r="50"/><path class="cls-2" d="M43.51,22.32a21.1,21.1,0,0,0-21,21V77.64H45.31a8.51,8.51,0,0,0,8,5.39,8.79,8.79,0,1,0-8.58-11H34.33L58.49,47.48a7.26,7.26,0,0,0,3.59.8,8.14,8.14,0,0,0,8-8,8,8,0,0,0-16,0,5.79,5.79,0,0,0,.6,2.79L42.11,55.87V48.08a7.73,7.73,0,0,0,5.19-7.39,8.13,8.13,0,0,0-8-8,8,8,0,0,0-8,8,7.74,7.74,0,0,0,5.19,7.39V61.66l-8.58,8.79V43.29A15.24,15.24,0,0,1,43.31,27.92H71.87V56.27a15.42,15.42,0,0,1-8.19,13.58,10.4,10.4,0,0,1,.8,4.19v1.8a21.3,21.3,0,0,0,13-19.57V22.32ZM39.32,38.5a2.21,2.21,0,0,1,2.19,2.19,2.54,2.54,0,0,1-2.19,2.2,2.21,2.21,0,0,1-2.2-2.2C36.72,39.7,38.12,38.5,39.32,38.5Zm14,33a3.2,3.2,0,1,1-3.19,3.19A3,3,0,0,1,53.29,71.45ZM62.08,37.9a2.2,2.2,0,1,1,0,4.39,2.55,2.55,0,0,1-2.2-2.19A2,2,0,0,1,62.08,37.9Z"/></svg>