<svg id="Calque_1" data-name="Calque 1" xmlns="http://www.w3.org/2000/svg" viewBox="0 0 100 100"><defs><style>.cls-1{fill:#4f1d29;}.cls-2{fill:#fff;}</style></defs><rect class="cls-1" width="100" height="100"/><path class="cls-2" d="M55.3,27.37A7.36,7.36,0,0,0,50,29.64c-.94.94-1.13,1.44-1.13,4a14.75,14.75,0,0,1-2,8.19c-.88,1.44-1.57,2-2.27,2a15.94,15.94,0,0,0-2.45.31c-.76.13-2.21,1.13-1.51,1.2.06,0,.12,0,.25-.13a4.63,4.63,0,0,1,1.7-.75c5.6-.19,5.85,2.89,10.7,5.47,3.84,2.08,4.6,1.77,5.54,1.7,4-.12,8.18-3.9,9.57-6.23.12-.13.12-.5-.07-.5s-.94,1.32-2.64,2.51c-2.83,2-4.78,2.52-5.54,2.59-1.51.18-3.4-.26-6.8-2s-3.27-2.26-6.29-3.65c-.38-.19-.76-.25-.76-.31s.13-.19.51-.51c2-1.76,3.4-5,3.9-9.37.38-3,.44-3.28.69-3.91a2.18,2.18,0,0,1,2.2-1.51c1,0,2,.63,2,1.2a.76.76,0,0,1-.07.31v.19c0,.19.25.38.51.38.5,0,1.51-1.32,1.51-1.95,0-.82-.88-1.45-2.27-1.45"/><path class="cls-2" d="M62.29,45.81H62c-1.13,0-1.26-.37-1.13-4a30.6,30.6,0,0,1,.32-3.65c.12-.7.25-.88.62-1s.32-.12.38-.37-.06-.19-.25-.26a12.74,12.74,0,0,0-3-.5,4.7,4.7,0,0,0-3.46,1.26,7.16,7.16,0,0,0-2.14,5.29c-.13,2.58.63,4,1.95,4a2.87,2.87,0,0,0,1.64-.63,10.84,10.84,0,0,0,1.76-2c.25-.44.38-.56.5-.56s.13.06.13.25c0,2.39.06,2.83.69,2.83a12.32,12.32,0,0,0,2.08-.38c.63-.18.63-.18.63-.31s0-.25-.19-.25h-.25v.12ZM58,37.13a3.73,3.73,0,0,1,1.45.19c.25.12.31.31.25,1.57a9.72,9.72,0,0,1-1.14,4.41c-.75,1.32-1.63,2.2-2.32,2.2-.89,0-1.45-1.51-1.33-3.9A7.21,7.21,0,0,1,56,37.82a2.57,2.57,0,0,1,2-.69"/><path class="cls-2" d="M39.44,56.2c-4.53,0-7.11,3.34-7.37,9.32-.12,4.28,1.45,6.61,4.47,6.61a8.26,8.26,0,0,0,4.91-2c.76-.62.82-.75.88-1.57,0-.19-.06-.31-.12-.31a.33.33,0,0,0-.25.19,5.41,5.41,0,0,1-4,2.07c-2.2,0-3.52-2.14-3.4-5.47,0-1,.19-1.2.76-1.26,2.89-.32,3.9-.57,5.22-1.32A4.45,4.45,0,0,0,43,58.91c.07-1.83-1.13-2.71-3.52-2.71m-.82,1a1.66,1.66,0,0,1,1.83,1.7,4,4,0,0,1-1.26,2.64,5.41,5.41,0,0,1-3.78,1.2c-.5,0-.63-.13-.63-.57.06-2.83,1.7-5,3.84-5"/><path class="cls-2" d="M84.63,56.2c-4.53,0-7.11,3.34-7.36,9.32-.19,4.28,1.38,6.61,4.47,6.61a8.31,8.31,0,0,0,4.91-2c.75-.62.82-.75.88-1.57,0-.19-.06-.31-.13-.31a.34.34,0,0,0-.25.19,5.41,5.41,0,0,1-4,2.07c-2.21,0-3.53-2.14-3.4-5.47.06-1,.19-1.2.75-1.26,2.9-.32,3.91-.57,5.29-1.32a4.45,4.45,0,0,0,2.39-3.59c-.06-1.83-1.26-2.71-3.59-2.71m-.81,1a1.65,1.65,0,0,1,1.82,1.7,3.87,3.87,0,0,1-1.26,2.64,5.39,5.39,0,0,1-3.77,1.2c-.51,0-.63-.13-.63-.57.06-2.83,1.7-5,3.84-5"/><path class="cls-2" d="M26.16,55.7c-.32,0-.63.56-.57,1.07s.31.44,1.83.44a10.25,10.25,0,0,0,4.84-1.07,7.22,7.22,0,0,0,3.59-7.24A6.58,6.58,0,0,0,32,43.55a20.29,20.29,0,0,0-7.81-1.32c-9.69,0-18,4.4-17.43,9.31.06.82.5,1.58,1.57,2.83.63.76,1,1.07,1.26,1.07a.8.8,0,0,0,.69-.62A.55.55,0,0,0,10,54.5a2.11,2.11,0,0,1-.5-1.32,7.51,7.51,0,0,1,2.39-5.92c2.14-2,6-3.21,10.45-3.21.57,0,1,.19,1,.32s-.26.44-.88,1c-1.77,1.51-2.08,2.14-2,3.53L20.93,52a39.47,39.47,0,0,1-.44,9.32,14.85,14.85,0,0,1-3.9,7.3,2.55,2.55,0,0,1-1.95,1.07,2.91,2.91,0,0,0-1.7.82c-.95.88-1.26,1.26-1.2,1.45s.44.69.63.69a1.06,1.06,0,0,0,.44-.19,7.57,7.57,0,0,1,3.21-.5c.57,0,1.58.06,2.9.19,1.89.18,3.46.25,4.34.25,2.46,0,5.1-1.2,5-2.33a.35.35,0,0,0-.37-.32c-.19,0-.38.07-.63.07a31,31,0,0,1-3.47.19c-3.52,0-5.72-.26-5.79-.63,0-.07,0-.13.13-.19C22.44,64.82,24,59.54,24,49.34c-.13-4,.25-5,2.07-5,3.28,0,7.24,1.38,7.43,4.91.25,3.9-3,6.35-6.55,6.35a.71.71,0,0,1-.31-.06Z"/><path class="cls-2" d="M52.85,57.9H51.59c-2.08,0-2.08,0-2.21,1-.06.31-.31,4.78-.44,7-.19,3.9.19,4.78,2,4.78a4.74,4.74,0,0,0,2.65-1,.85.85,0,0,1,.44-.18c.13,0,.19.06.19.31,0,.63-.19.82-1.32,1.38a10.11,10.11,0,0,1-3.84,1c-1.89,0-2.58-1-2.52-3.27l.12-1.83c.07-1.13.51-7.3.51-7.93.06-1.13,0-1.2-.88-1.2h-.7c-1.13,0-1.19,0-1.19-.25a.89.89,0,0,1,.82-1c2.14-.37,2.2-.37,2.77-3.58a.67.67,0,0,1,.5-.63,5.4,5.4,0,0,1,1.13-.32c.19,0,.25.13.25.44s0,.19-.18,2.27a4.24,4.24,0,0,0-.07.69c0,.63.19.76,1.26,1,.19,0,2.65.31,3.15.38.31.06.44.06.38.37,0,.63-.13.7-1,.7h-.5Z"/><path class="cls-2" d="M60.53,70.93a.75.75,0,0,1-.57.82,8,8,0,0,1-1.51.38c-.25,0-.38-.19-.38-.57a4.17,4.17,0,0,1,.06-.76c.07-.81.57-8.24.63-10.13s.07-2.2-.25-2.46-.69-.18-2-.25c-.51,0-.57,0-.51-.44,0-.19.13-.25.38-.31a23.6,23.6,0,0,0,4-1,.84.84,0,0,1,.38-.06.75.75,0,0,1,.63.69,1.1,1.1,0,0,1-.07.44c-.12,1-.18,1.64-.25,2.21s.07.81.25.81.19,0,1.26-1.38c1.58-1.95,2.71-2.77,4-2.77.51,0,.76.19.76.57a5.29,5.29,0,0,1-.57,1.76c-.25.69-.38.75-.69.75h-.32a5.62,5.62,0,0,0-.94-.06,3.75,3.75,0,0,0-3.27,2.21c-.57,1.07-.89,2.58-1,5.66Z"/><path class="cls-2" d="M73.68,57.65c-.06.69-.19,1.57-.31,2.64l-.32,3.46L72.8,66.9c-.06.82-.13,1.64-.19,1.89-.12,1.95,0,2.08,2.71,2.08h.06c.25,0,.32.06.25.37s0,.32-1.13.51c-1.64.25-3,.5-3.27.5-.88,0-1.2-.5-1.14-1.51,0,0,.19-2.08.51-6,.12-1.7.19-2.58.25-3.4.19-2.46.13-2.77-.19-3s-.75-.19-2-.25c-.51,0-.51,0-.51-.44,0-.19.13-.26.44-.32a30.71,30.71,0,0,0,4.09-.94,1,1,0,0,1,.38-.07c.32,0,.69.38.63.63Z"/><path class="cls-2" d="M90.74,55.13h.44c.25,0,.32.06.32.31l.06.26a1.38,1.38,0,0,1,.06.37h.57a1.35,1.35,0,0,1-.13-.44L92,55.38c-.06-.31-.06-.38-.31-.5.31-.13.44-.25.44-.57s-.32-.63-.89-.63H90.17v2.39h.57v-.94Zm0-.38v-.63h.44c.32,0,.44.07.44.32s-.12.31-.44.31Zm.44-2A2.12,2.12,0,0,0,89,54.88a2.18,2.18,0,0,0,2.14,2.2,2.13,2.13,0,0,0,2.14-2.2,2.16,2.16,0,0,0-2.14-2.14m0,.38a1.83,1.83,0,1,1-1.82,1.82,1.82,1.82,0,0,1,1.82-1.82"/><path class="cls-2" d="M72.42,53.18a1.7,1.7,0,1,0-1.7-1.7,1.69,1.69,0,0,0,1.7,1.7"/><path class="cls-2" d="M41.26,50.09c-.31,0-.63.38-1,1s-2.08,2.65-2.08,2.9.31.31.63.31c.57,0,.63,0,1.13-.5,1.7-1.64,2.14-2.08,2.65-2.52.75-.63.88-.82.88-1s-.25-.19-.38-.19Z"/></svg>