<svg id="Calque_1" data-name="Calque 1" xmlns="http://www.w3.org/2000/svg" viewBox="0 0 100 100"><defs><style>.cls-1{fill:#e7be50;}</style></defs><circle cx="50" cy="50" r="50"/><path class="cls-1" d="M75.54,64.22c.27,2.32.67,5.87,3.37,6.75a14,14,0,0,0,4.12.55c.33,0,.47.07.47.34s-.54.54-1.35.54c-1.42,0-8.16-.2-10.52-.41-1.42-.13-1.76-.34-1.76-.61S70,71,70.35,71s.4-1.16.27-2.32l-3-32.78h-.2L52,68.93c-1.35,2.79-1.48,3.34-2.09,3.34s-.74-.62-2-2.93c-1.62-3.14-7-14.11-7.35-14.73-.54-1.16-7.62-16.43-8.29-18.13H32L29.47,66c-.06,1-.06,2.18-.06,3.27a2,2,0,0,0,1.61,2,10.71,10.71,0,0,0,2.36.35c.27,0,.48.13.48.34,0,.47-.41.54-1.15.54-2.36,0-5.33-.2-5.87-.2s-3.57.2-5.26.2c-.61,0-1.08-.13-1.08-.54,0-.21.34-.34.61-.34A7.47,7.47,0,0,0,23,71.38c2.09-.41,2.29-2.86,2.49-5.25l4.59-41.44c.07-.68.34-1.16.67-1.16s.61.27.95.95l19.22,40L69.47,24.62c.27-.55.54-1,.94-1s.61.47.74,1.7Z"/></svg>