<svg id="Calque_1" data-name="Calque 1" xmlns="http://www.w3.org/2000/svg" viewBox="0 0 100 100"><defs><style>.cls-1{fill:#006fbf;}</style></defs><path class="cls-1" d="M50,69.49A19.51,19.51,0,0,1,30.44,50,4.3,4.3,0,1,1,39,50,10.93,10.93,0,1,0,57.7,42.24a11,11,0,0,0-8.21-3.19,4.3,4.3,0,1,1-.37-8.59,19.52,19.52,0,1,1,.85,39Z"/><path class="cls-1" d="M50,84.73A34.76,34.76,0,0,1,25.39,25.39a35,35,0,0,1,38.79-7.15,4.29,4.29,0,1,1-3.51,7.84,26.32,26.32,0,0,0-29.2,5.39,26.16,26.16,0,0,0,37,37,26.32,26.32,0,0,0,5.38-29.21,4.3,4.3,0,0,1,7.84-3.52,35,35,0,0,1-7.14,38.81A34.57,34.57,0,0,1,50,84.73Z"/><path class="cls-1" d="M50,100A50,50,0,1,1,92.79,75.79a4.3,4.3,0,0,1-7.36-4.44,41.4,41.4,0,1,0-14.1,14.09,4.3,4.3,0,0,1,4.44,7.36A49.84,49.84,0,0,1,50,100Z"/></svg>