<svg id="Calque_1" data-name="Calque 1" xmlns="http://www.w3.org/2000/svg" viewBox="0 0 15 15"><defs><style>.cls-1{fill:#0acf83;}.cls-2{fill:#a259ff;}.cls-3{fill:#f24e1e;}.cls-4{fill:#ff7262;}.cls-5{fill:#1abcfe;}</style></defs><rect width="15" height="15" rx="2"/><path class="cls-1" d="M5.67,13A1.83,1.83,0,0,0,7.5,11.16V9.33H5.67a1.83,1.83,0,1,0,0,3.66"/><path class="cls-2" d="M3.84,7.5A1.83,1.83,0,0,1,5.67,5.67H7.5V9.33H5.67A1.83,1.83,0,0,1,3.84,7.5"/><path class="cls-3" d="M3.84,3.84A1.83,1.83,0,0,1,5.67,2H7.5V5.67H5.67A1.83,1.83,0,0,1,3.84,3.84"/><path class="cls-4" d="M7.5,2H9.33a1.83,1.83,0,1,1,0,3.66H7.5Z"/><path class="cls-5" d="M11.16,7.5A1.83,1.83,0,1,1,9.33,5.67,1.83,1.83,0,0,1,11.16,7.5"/></svg>