<svg id="Calque_1" data-name="Calque 1" xmlns="http://www.w3.org/2000/svg" viewBox="0 0 15 15"><defs><style>.cls-1{fill:#49021f;}.cls-2{fill:#f36;}</style></defs><rect class="cls-1" width="15" height="15" rx="2"/><path class="cls-2" d="M5.35,4.46V11c0,.07,0,.11-.09.11H4c-.06,0-.09,0-.09-.11V4.46s0-.08.09-.08H5.26s.07,0,.08.06v0"/><path class="cls-2" d="M9,11.17a3.24,3.24,0,0,1-1.37-.29,2.14,2.14,0,0,1-1-.86,2.71,2.71,0,0,1-.35-1.45,2.5,2.5,0,0,1,.35-1.33,2.71,2.71,0,0,1,1-1,3.36,3.36,0,0,1,1.61-.36h.13l.2,0v-2s0-.07.06-.07H11a.06.06,0,0,1,.06,0h0v6c0,.12,0,.25,0,.38s0,.26,0,.37a.1.1,0,0,1-.07.1,5.11,5.11,0,0,1-1,.31,5.31,5.31,0,0,1-1,.09M9.62,9.9V7.11l-.17,0H9.24a1.61,1.61,0,0,0-.72.16A1.52,1.52,0,0,0,8,7.7a1.41,1.41,0,0,0-.21.81,1.81,1.81,0,0,0,.11.65,1.2,1.2,0,0,0,.29.45,1.09,1.09,0,0,0,.43.25,1.57,1.57,0,0,0,.52.08h.27a.58.58,0,0,0,.23,0"/></svg>