<svg id="Calque_1" data-name="Calque 1" xmlns="http://www.w3.org/2000/svg" viewBox="0 0 15 15"><defs><style>.cls-1{fill:#001e36;}.cls-2{fill:#31a8ff;}</style></defs><rect class="cls-1" width="15" height="15" rx="2"/><path class="cls-2" d="M3,10.66V4.23s0-.07.06-.07H5a3.66,3.66,0,0,1,1.28.2,2.14,2.14,0,0,1,.84.51,2,2,0,0,1,.46.71,2.52,2.52,0,0,1,.14.82,2.24,2.24,0,0,1-.37,1.33,2.13,2.13,0,0,1-1,.76,4,4,0,0,1-1.41.21H4.34v2a.07.07,0,0,1-.07.08H3.06c-.05,0-.07,0-.07-.08M4.35,5.37v2.1h.57a2.46,2.46,0,0,0,.72-.11A1.19,1.19,0,0,0,6.16,7a1,1,0,0,0,.19-.65,1.07,1.07,0,0,0-.14-.55.91.91,0,0,0-.44-.36A1.83,1.83,0,0,0,5,5.36H4.35"/><path class="cls-2" d="M11.61,7.09a2.25,2.25,0,0,0-.6-.22,3.27,3.27,0,0,0-.7-.08,1.57,1.57,0,0,0-.37,0,.37.37,0,0,0-.2.12.34.34,0,0,0-.05.17.26.26,0,0,0,.07.16.58.58,0,0,0,.21.17,3.55,3.55,0,0,0,.44.21,4.76,4.76,0,0,1,1,.45,1.62,1.62,0,0,1,.49.52,1.32,1.32,0,0,1,.14.65,1.44,1.44,0,0,1-.24.83,1.66,1.66,0,0,1-.7.56,2.89,2.89,0,0,1-1.13.2,4,4,0,0,1-.85-.09,2.07,2.07,0,0,1-.64-.2.11.11,0,0,1-.07-.11V9.39a.07.07,0,0,1,0-.06s0,0,.05,0a2.74,2.74,0,0,0,.78.3,2.59,2.59,0,0,0,.74.1,1.11,1.11,0,0,0,.51-.09.29.29,0,0,0,.17-.26.33.33,0,0,0-.15-.25,2.58,2.58,0,0,0-.61-.3A3.72,3.72,0,0,1,9,8.39a1.61,1.61,0,0,1-.47-.53,1.43,1.43,0,0,1-.15-.64,1.45,1.45,0,0,1,.22-.75,1.52,1.52,0,0,1,.65-.58,2.47,2.47,0,0,1,1.11-.22,4.9,4.9,0,0,1,.77.06,3.05,3.05,0,0,1,.54.14.12.12,0,0,1,.06.06.24.24,0,0,1,0,.08V7a.15.15,0,0,1,0,.07h-.12"/></svg>