<svg id="Calque_1" data-name="Calque 1" xmlns="http://www.w3.org/2000/svg" viewBox="0 0 15 15"><defs><style>.cls-1{fill:#470137;}.cls-2{fill:#ff61f6;}</style></defs><rect class="cls-1" width="15" height="15" rx="2"/><path class="cls-2" d="M7.89,4.52,6,7.62,8,10.9A.09.09,0,0,1,8,11S8,11,8,11H6.52c-.1,0-.17,0-.21-.07-.13-.27-.27-.52-.4-.78s-.27-.52-.43-.79S5.19,8.81,5,8.53H5q-.2.41-.42.81l-.42.8c-.15.26-.29.53-.43.79,0,.06-.08.07-.15.07H2.23s0,0,0,0a.1.1,0,0,1,0-.07L4.14,7.72,2.25,4.51s0,0,0-.06a.08.08,0,0,1,.07,0H3.8a.13.13,0,0,1,.07.06,8.52,8.52,0,0,0,.4.8c.15.27.29.53.45.8s.28.52.42.79h0l.4-.81L6,5.3c.14-.27.28-.54.42-.79a.07.07,0,0,1,0-.06.11.11,0,0,1,.08,0H7.84a.08.08,0,0,1,.07.05.14.14,0,0,1,0,0"/><path class="cls-2" d="M10.77,11.12a3.25,3.25,0,0,1-1.34-.28A2.27,2.27,0,0,1,8.49,10a2.66,2.66,0,0,1-.35-1.43A2.6,2.6,0,0,1,9.48,6.27a3.24,3.24,0,0,1,1.58-.36h.33V4s0-.07.06-.07h1.27a.06.06,0,0,1,.06.05h0v6c0,.11,0,.24,0,.38s0,.25,0,.36a.11.11,0,0,1-.06.1,4.59,4.59,0,0,1-1,.3,5.23,5.23,0,0,1-1,.09m.62-1.25V7.12l-.17,0H11a1.42,1.42,0,0,0-.7.17,1.33,1.33,0,0,0-.54.46,1.44,1.44,0,0,0-.2.79,1.8,1.8,0,0,0,.1.65,1.4,1.4,0,0,0,.29.44,1,1,0,0,0,.42.25,1.53,1.53,0,0,0,.52.08h.26a.91.91,0,0,0,.23,0"/></svg>