<svg id="Calque_1" data-name="Calque 1" xmlns="http://www.w3.org/2000/svg" viewBox="0 0 15 15"><defs><style>.cls-1{fill:#300;}.cls-2{fill:#ff9a00;}</style></defs><rect class="cls-1" width="15" height="15" rx="2"/><path class="cls-2" d="M7.52,9.49H5.19L4.72,11A.1.1,0,0,1,4.6,11H3.42c-.07,0-.08,0-.07-.11l2-5.8.06-.2a1.84,1.84,0,0,0,0-.41s0-.06,0-.07H7.14c.05,0,.07,0,.08,0L9.5,10.94c0,.07,0,.1-.06.1H8.13A.09.09,0,0,1,8,11Zm-2-1.27H7.14A3.26,3.26,0,0,0,7,7.77c-.06-.17-.11-.35-.17-.54l-.18-.58c-.06-.19-.12-.37-.17-.55s-.09-.34-.14-.49h0a8,8,0,0,1-.21.81c-.1.3-.19.61-.29.92s-.18.61-.27.88"/><path class="cls-2" d="M10.86,5.52a.73.73,0,0,1-.55-.22.8.8,0,0,1-.22-.57.75.75,0,0,1,.23-.56A.82.82,0,0,1,10.88,4a.78.78,0,0,1,.57.22.8.8,0,0,1,.2.56.76.76,0,0,1-.22.57.73.73,0,0,1-.57.22M10.16,11V6.13c0-.06,0-.08.08-.08h1.24c.06,0,.08,0,.08.08V11c0,.07,0,.1-.08.1H10.26a.09.09,0,0,1-.1-.1"/></svg>