<?xml version="1.0" encoding="utf-8"?>
<!-- Generator: Adobe Illustrator 21.0.2, SVG Export Plug-In . SVG Version: 6.00 Build 0)  -->
<svg version="1.1" id="Layer_1" xmlns="http://www.w3.org/2000/svg" xmlns:xlink="http://www.w3.org/1999/xlink" x="0px" y="0px"
	 viewBox="0 0 72 33" style="enable-background:new 0 0 72 33;" xml:space="preserve">
<style type="text/css">
	.st0{fill:#E56700;}
	.st1{fill:#FFFFFF;}
	.st2{fill:#FF7F00;}
	.st3{clip-path:url(#SVGID_2_);}
	.st4{fill:#994100;}
</style>
<g>
	<polygon class="st0" points="40.3,4.8 72,4.8 72,33 29.1,33 	"/>
	<g>
		<g>
			<path class="st1" d="M42.4,25.9c-1.3-1.3-2-3.2-2-5.7v-9.4h3.9v9.3c0,3,1.2,4.5,3.7,4.5c1.2,0,2.1-0.4,2.8-1.1
				c0.6-0.7,1-1.9,1-3.4v-9.3h3.8v9.4c0,2.5-0.7,4.4-2,5.7s-3.2,2-5.6,2S43.7,27.2,42.4,25.9z"/>
			<path class="st1" d="M59.4,10.8h3.9v16.8h-3.9V10.8z"/>
		</g>
	</g>
	<polygon class="st2" points="35.3,28.3 0,28.3 0,0 46.5,0 	"/>
	<g>
		<defs>
			<polygon id="SVGID_1_" points="35.3,28.3 0,28.3 0,0 46.5,0 			"/>
		</defs>
		<clipPath id="SVGID_2_">
			<use xlink:href="#SVGID_1_"  style="overflow:visible;"/>
		</clipPath>
		<g class="st3">
			<g>
				<path class="st1" d="M7.8,21.3c-1.3-1.3-2-3.2-2-5.7V6.2h3.9v9.3c0,3,1.2,4.5,3.7,4.5c1.2,0,2.1-0.4,2.8-1.1
					c0.6-0.7,1-1.9,1-3.4V6.2H21v9.4c0,2.5-0.7,4.4-2,5.7c-1.3,1.3-3.2,2-5.6,2S9.2,22.6,7.8,21.3z"/>
				<path class="st1" d="M35.5,23l-4.1-5.8l-4,5.8H23l6.2-8.5l-5.9-8.3h4.4l3.9,5.4l3.8-5.4h4.2l-5.9,8.1L40,23H35.5z"/>
			</g>
		</g>
	</g>
	<polygon class="st4" points="29.1,33 35.3,28.3 31,28.3 	"/>
</g>
</svg>
